<svg width="126" height="46" viewBox="0 0 126 46" fill="none" xmlns="http://www.w3.org/2000/svg">
<path d="M5.16173 43.0565C5.16173 43.0565 5.11871 43.2253 5.01118 43.2253H4.23692C4.23692 43.2253 4.08637 43.1771 4.08637 43.0565V38.4012H0.15055C0.15055 38.4012 0 38.353 0 38.2324V37.364C0 37.364 0.0430144 37.1952 0.15055 37.1952H4.98967C4.98967 37.1952 5.14022 37.2434 5.14022 37.364V43.0565H5.16173ZM1.5055 43.0565C1.5055 43.0565 1.46249 43.2253 1.35495 43.2253H0.602202C0.602202 43.2253 0.451651 43.1771 0.451651 43.0565V39.7761C0.451651 39.7761 0.494666 39.6073 0.602202 39.6073H1.35495C1.35495 39.6073 1.5055 39.6555 1.5055 39.7761V43.0565ZM10.56 41.1992C10.56 41.754 10.388 42.2364 10.0224 42.6464C9.67824 43.0324 9.2481 43.2495 8.75343 43.2495H7.37697C7.37697 43.2495 7.22642 43.2012 7.22642 43.0806V42.2846C7.22642 42.2846 7.26943 42.1158 7.37697 42.1158H8.68891C8.90398 42.1158 9.07604 42.0193 9.2481 41.8505C9.39865 41.6816 9.48468 41.4887 9.48468 41.2233V38.4253H6.12955C6.12955 38.4253 5.979 38.3771 5.979 38.2565V35.9892C5.979 35.9892 6.02202 35.8203 6.12955 35.8203H6.8823C6.8823 35.8203 7.03285 35.8686 7.03285 35.9892V37.2193H10.388C10.388 37.2193 10.5385 37.2675 10.5385 37.3882V41.2233L10.56 41.1992ZM13.5495 40.1138C13.5495 40.1138 13.5065 40.2826 13.399 40.2826H12.6462C12.6462 40.2826 12.4957 40.2344 12.4957 40.1138V38.4012H11.5279C11.5279 38.4012 11.3773 38.353 11.3773 38.2324V37.364C11.3773 37.364 11.4203 37.1952 11.5279 37.1952H13.4205C13.4205 37.1952 13.571 37.2434 13.571 37.364V40.1138H13.5495ZM19.7866 43.0565C19.7866 43.0565 19.7436 43.2253 19.6361 43.2253H18.8618C18.8618 43.2253 18.7113 43.1771 18.7113 43.0565V38.4012H14.797C14.797 38.4012 14.6464 38.353 14.6464 38.2324V37.364C14.6464 37.364 14.6894 37.1952 14.797 37.1952H19.6361C19.6361 37.1952 19.7866 37.2434 19.7866 37.364V43.0565ZM16.1304 43.0565C16.1304 43.0565 16.0874 43.2253 15.9799 43.2253H15.2271C15.2271 43.2253 15.0765 43.1771 15.0765 43.0565V39.7761C15.0765 39.7761 15.1196 39.6073 15.2271 39.6073H15.9799C15.9799 39.6073 16.1304 39.6555 16.1304 39.7761V43.0565ZM26.4539 41.1992C26.4539 41.754 26.2818 42.2364 25.9162 42.6464C25.5721 43.0324 25.1419 43.2495 24.6473 43.2495H23.4859C23.4859 43.2495 23.3353 43.2012 23.3353 43.0806V42.2846C23.3353 42.2846 23.3783 42.1158 23.4859 42.1158H24.5827C24.7978 42.1158 24.9699 42.0193 25.1419 41.8505C25.2925 41.6816 25.3785 41.4887 25.3785 41.2233V38.4253H21.0771C21.0771 38.4253 20.9265 38.3771 20.9265 38.2565V37.3882C20.9265 37.3882 20.9695 37.2193 21.0771 37.2193H26.3033C26.3033 37.2193 26.4539 37.2675 26.4539 37.3882V41.2233V41.1992ZM22.518 45.4203C22.518 45.4203 22.475 45.5892 22.3675 45.5892H21.5932C21.5932 45.5892 21.4427 45.5409 21.4427 45.4203V39.7761C21.4427 39.7761 21.4857 39.6073 21.5932 39.6073H22.3675C22.3675 39.6073 22.518 39.6555 22.518 39.7761V45.4203ZM32.734 43.0324C32.734 43.0324 32.6909 43.2012 32.5834 43.2012H31.8092C31.8092 43.2012 31.6586 43.153 31.6586 43.0324V38.3771H27.7443C27.7443 38.3771 27.5937 38.3289 27.5937 38.2083V37.3399C27.5937 37.3399 27.6368 37.1711 27.7443 37.1711H32.5834C32.5834 37.1711 32.734 37.2193 32.734 37.3399V43.0324ZM29.0777 43.0324C29.0777 43.0324 29.0347 43.2012 28.9272 43.2012H28.1744C28.1744 43.2012 28.0239 43.153 28.0239 43.0324V39.752C28.0239 39.752 28.0669 39.5831 28.1744 39.5831H28.9272C28.9272 39.5831 29.0777 39.6314 29.0777 39.752V43.0324ZM41.5949 43.0324C41.5949 43.0324 41.5519 43.2012 41.4444 43.2012H40.6916C40.6916 43.2012 40.5411 43.153 40.5411 43.0324V38.3771H38.1538V41.6093C38.1538 42.6947 37.6806 43.2253 36.7558 43.2253H36.0461C36.0461 43.2253 35.8955 43.1771 35.8955 43.0565V42.2605C35.8955 42.2605 35.9385 42.0917 36.0461 42.0917H36.5837C36.9279 42.0917 37.0999 41.8987 37.0999 41.5369V38.4012H36.2396C36.2396 38.4012 36.0891 38.353 36.0891 38.2324V37.364C36.0891 37.364 36.1321 37.1952 36.2396 37.1952H41.5089C41.5089 37.1952 41.6595 37.2434 41.6595 37.364V43.0565L41.5949 43.0324ZM46.8642 43.0324C46.8642 43.0324 46.8212 43.2012 46.7136 43.2012H45.9609C45.9609 43.2012 45.8103 43.153 45.8103 43.0324V39.2454C45.8103 38.9801 45.7458 38.763 45.5953 38.5942C45.4447 38.4253 45.2727 38.353 45.0361 38.353H42.6488C42.6488 38.353 42.4982 38.3047 42.4982 38.1841V37.3158C42.4982 37.3158 42.5412 37.1469 42.6488 37.1469H45.2081C45.7243 37.1469 46.1329 37.3158 46.4556 37.6535C46.7567 37.9912 46.9072 38.4495 46.9072 39.0525V43.0324H46.8642ZM50.8 38.2083C50.8 38.2083 50.757 38.3771 50.6495 38.3771H49.402L49.9612 39.3178V43.0324C49.9612 43.0324 49.9182 43.2012 49.8107 43.2012H49.0579C49.0579 43.2012 48.9074 43.153 48.9074 43.0324V38.3771H47.746C47.746 38.3771 47.5954 38.3289 47.5954 38.2083V37.3399C47.5954 37.3399 47.6385 37.1711 47.746 37.1711H50.671C50.671 37.1711 50.8215 37.2193 50.8215 37.3399V38.2083H50.8ZM57.1231 41.1992C57.1231 41.754 56.9511 42.2364 56.5854 42.6464C56.2413 43.0324 55.8112 43.2495 55.3165 43.2495H51.7463C51.7463 43.2495 51.5958 43.2012 51.5958 43.0806V42.2846C51.5958 42.2846 51.6388 42.1158 51.7463 42.1158H53.4239L52.8432 41.3439V38.4495H51.7678C51.7678 38.4495 51.6173 38.4012 51.6173 38.2806V37.4123C51.6173 37.4123 51.6603 37.2434 51.7678 37.2434H53.768C53.768 37.2434 53.9186 37.2917 53.9186 37.4123V42.1158H55.252C55.4671 42.1158 55.6606 42.0193 55.8112 41.8505C55.9617 41.6816 56.0478 41.4645 56.0478 41.2233V38.4253H54.9079C54.9079 38.4253 54.7573 38.3771 54.7573 38.2565V37.3882C54.7573 37.3882 54.8004 37.2193 54.9079 37.2193H56.9726C56.9726 37.2193 57.1231 37.2675 57.1231 37.3882V41.2233V41.1992ZM62.9946 43.0565C62.9946 43.0565 62.9516 43.2253 62.844 43.2253H58.2845C58.2845 43.2253 58.134 43.1771 58.134 43.0565V42.2605C58.134 42.2605 58.177 42.0917 58.2845 42.0917H61.2525V38.4253H58.3921C58.3921 38.4253 58.2415 38.3771 58.2415 38.2565V37.3882C58.2415 37.3882 58.2845 37.2193 58.3921 37.2193H62.1773C62.1773 37.2193 62.3279 37.2675 62.3279 37.3882V42.0917H62.844C62.844 42.0917 62.9946 42.1399 62.9946 42.2605V43.0565ZM71.3609 43.0565C71.3609 43.0565 71.3179 43.2253 71.2103 43.2253H70.4576C70.4576 43.2253 70.307 43.1771 70.307 43.0565V38.4012H67.9197V41.6334C67.9197 42.7188 67.4466 43.2495 66.5218 43.2495H65.812C65.812 43.2495 65.6615 43.2012 65.6615 43.0806V42.2846C65.6615 42.2846 65.7045 42.1158 65.812 42.1158H66.3497C66.6938 42.1158 66.8659 41.9228 66.8659 41.561V38.4253H66.0056C66.0056 38.4253 65.8551 38.3771 65.8551 38.2565V37.3882C65.8551 37.3882 65.8981 37.2193 66.0056 37.2193H71.2749C71.2749 37.2193 71.4254 37.2675 71.4254 37.3882V43.0806L71.3609 43.0565ZM74.3719 40.1138C74.3719 40.1138 74.3289 40.2826 74.2213 40.2826H73.4686C73.4686 40.2826 73.318 40.2344 73.318 40.1138V38.4012H72.3502C72.3502 38.4012 72.1997 38.353 72.1997 38.2324V37.364C72.1997 37.364 72.2427 37.1952 72.3502 37.1952H74.2429C74.2429 37.1952 74.3934 37.2434 74.3934 37.364V40.1138H74.3719ZM82.3296 41.1992C82.3296 41.754 82.1575 42.2364 81.7919 42.6464C81.4478 43.0324 81.0176 43.2495 80.5015 43.2495H77.7055C77.2109 43.2495 76.8022 43.0806 76.5011 42.7188C76.2 42.357 76.0495 41.8987 76.0495 41.3198V38.4012H75.2752C75.2752 38.4012 75.1247 38.353 75.1247 38.2324V37.364C75.1247 37.364 75.1677 37.1952 75.2752 37.1952H76.9743C76.9743 37.1952 77.1248 37.2434 77.1248 37.364V41.1992C77.1248 41.7781 77.3829 42.0676 77.9206 42.0676H80.4369C80.652 42.0676 80.8241 41.9711 80.9961 41.8022C81.1467 41.6334 81.2327 41.4404 81.2327 41.1751V38.3771H80.3724C80.3724 38.3771 80.2219 38.3289 80.2219 38.2083V37.3399C80.2219 37.3399 80.2649 37.1711 80.3724 37.1711H82.1575C82.1575 37.1711 82.3081 37.2193 82.3081 37.3399V41.1751L82.3296 41.1992ZM79.6627 41.4163C79.6627 41.4163 79.6197 41.5851 79.5121 41.5851H78.7809C78.7809 41.5851 78.6303 41.5369 78.6303 41.4163V38.4012H77.9206C77.9206 38.4012 77.77 38.353 77.77 38.2324V37.364C77.77 37.364 77.8131 37.1952 77.9206 37.1952H79.5121C79.5121 37.1952 79.6627 37.2434 79.6627 37.364V41.4163ZM88.6312 43.0565C88.6312 43.0565 88.5882 43.2253 88.4806 43.2253H83.6845C83.6845 43.2253 83.534 43.1771 83.534 43.0565V42.2605C83.534 42.2605 83.577 42.0917 83.6845 42.0917H87.5558V39.2937C87.5558 39.0284 87.4913 38.8113 87.3407 38.6424C87.1902 38.4736 87.0181 38.4012 86.76 38.4012H85.2761V40.4515C85.2761 40.4515 85.233 40.6203 85.1255 40.6203H84.3512C84.3512 40.6203 84.2007 40.5721 84.2007 40.4515V38.4012H83.3834C83.3834 38.4012 83.2329 38.353 83.2329 38.2324V37.364C83.2329 37.364 83.2759 37.1952 83.3834 37.1952H86.9321C87.4483 37.1952 87.8569 37.364 88.1795 37.7017C88.4806 38.0394 88.6312 38.4977 88.6312 39.1007V43.0806V43.0565ZM91.9648 43.0083C91.9648 43.153 91.9003 43.2253 91.7712 43.2253H89.642C89.642 43.2253 89.4915 43.1771 89.4915 43.0565V42.2605C89.4915 42.2605 89.5345 42.0917 89.642 42.0917H90.8894V38.4253H89.728C89.728 38.4253 89.5775 38.3771 89.5775 38.2565V37.3882C89.5775 37.3882 89.6205 37.2193 89.728 37.2193H91.8142C91.8142 37.2193 91.9648 37.2675 91.9648 37.3882V43.0324V43.0083ZM100.482 43.0565C100.482 43.0565 100.439 43.2253 100.331 43.2253H99.5568C99.5568 43.2253 99.4063 43.1771 99.4063 43.0565V38.4012H95.492C95.492 38.4012 95.3414 38.353 95.3414 38.2324V37.364C95.3414 37.364 95.3844 37.1952 95.492 37.1952H100.331C100.331 37.1952 100.482 37.2434 100.482 37.364V43.0565ZM96.8254 43.0565C96.8254 43.0565 96.7824 43.2253 96.6749 43.2253H95.9221C95.9221 43.2253 95.7716 43.1771 95.7716 43.0565V39.7761C95.7716 39.7761 95.8146 39.6073 95.9221 39.6073H96.6749C96.6749 39.6073 96.8254 39.6555 96.8254 39.7761V43.0565ZM107.278 43.0565C107.278 43.0565 107.235 43.2253 107.127 43.2253H104.396C104.396 43.2253 104.245 43.1771 104.245 43.0565V42.2605C104.245 42.2605 104.288 42.0917 104.396 42.0917H106.203V39.2937C106.203 39.0284 106.138 38.8113 105.987 38.6424C105.837 38.4736 105.665 38.4012 105.428 38.4012H103.622C103.45 38.4012 103.364 38.4977 103.364 38.6907V43.0565C103.364 43.0565 103.321 43.2253 103.213 43.2253H102.439C102.439 43.2253 102.288 43.1771 102.288 43.0565V38.4012H101.471C101.471 38.4012 101.32 38.353 101.32 38.2324V37.364C101.32 37.364 101.363 37.1952 101.471 37.1952H103.213C103.213 37.1952 103.364 37.2434 103.364 37.364V37.8947L104.159 37.1952H105.708C106.762 37.1952 107.299 37.8223 107.299 39.0525V43.0806L107.278 43.0565ZM112.59 41.1992C112.59 41.754 112.418 42.2364 112.053 42.6464C111.708 43.0324 111.278 43.2495 110.784 43.2495H109.407C109.407 43.2495 109.257 43.2012 109.257 43.0806V42.2846C109.257 42.2846 109.3 42.1158 109.407 42.1158H110.719C110.934 42.1158 111.106 42.0193 111.278 41.8505C111.429 41.6816 111.515 41.4887 111.515 41.2233V38.4253H108.16C108.16 38.4253 108.009 38.3771 108.009 38.2565V35.9892C108.009 35.9892 108.052 35.8203 108.16 35.8203H108.912C108.912 35.8203 109.063 35.8686 109.063 35.9892V37.2193H112.418C112.418 37.2193 112.569 37.2675 112.569 37.3882V41.2233L112.59 41.1992ZM119.236 43.0565C119.236 43.0565 119.193 43.2253 119.085 43.2253H118.311C118.311 43.2253 118.161 43.1771 118.161 43.0565V39.2696C118.161 38.6907 117.902 38.3771 117.386 38.3771H115.472V43.0324C115.472 43.0324 115.429 43.2012 115.322 43.2012H114.569C114.569 43.2012 114.418 43.153 114.418 43.0324V38.3771H113.644C113.644 38.3771 113.494 38.3289 113.494 38.2083V37.3399C113.494 37.3399 113.537 37.1711 113.644 37.1711H117.644C118.741 37.1711 119.279 37.7982 119.279 39.0766V43.0565H119.236ZM125.43 43.0565C125.43 43.0565 125.387 43.2253 125.279 43.2253H124.505C124.505 43.2253 124.355 43.1771 124.355 43.0565V38.4012H120.44C120.44 38.4012 120.29 38.353 120.29 38.2324V37.364C120.29 37.364 120.333 37.1952 120.44 37.1952H125.279C125.279 37.1952 125.43 37.2434 125.43 37.364V43.0565ZM121.774 43.0565C121.774 43.0565 121.731 43.2253 121.623 43.2253H120.87C120.87 43.2253 120.72 43.1771 120.72 43.0565V39.7761C120.72 39.7761 120.763 39.6073 120.87 39.6073H121.623C121.623 39.6073 121.774 39.6555 121.774 39.7761V43.0565Z" fill="#CFCFCF"/>
<path d="M22.5574 26.5093C22.5574 28.1017 21.966 28.8511 20.7833 28.8511H1.77418C0.591394 28.8511 0 28.0549 0 26.5093V2.34181C0 0.749379 0.591394 0 1.77418 0H20.7833C21.966 0 22.5574 0.796215 22.5574 2.34181V26.4624V26.5093ZM13.9822 21.6851V7.16593H8.53296V21.6383H13.9822V21.6851ZM34.7655 16.7673H26.1903V0H34.7655V16.7205V16.7673ZM61.5472 28.8979H52.972V7.16593H49.8038V26.4624C49.8038 28.0549 49.2124 28.8042 48.0718 28.8042H38.2294V21.6383H41.3131V7.16593H38.694V0H59.8152C60.998 0 61.5472 0.796215 61.5472 2.34181V28.8511V28.8979ZM73.7552 16.7673H65.18V0H73.7552V16.7205V16.7673ZM99.861 26.5561C99.861 28.1485 99.2696 28.8979 98.0868 28.8979H88.2443V21.732H91.328V7.25961H88.7513L85.6676 28.8511H77.0079L80.514 7.25961H77.4303V0H97.8756C99.1851 0 99.861 0.843051 99.861 2.57599V26.5093V26.5561ZM124.742 26.4624C124.742 28.1017 123.981 28.9448 122.503 28.9448H103.283V21.6851H106.789L103.663 0.0936723H112.576L115.195 21.6851H116.167V0H124.742V26.3688V26.4624Z" fill="#CFCFCF"/>
</svg>
