<svg width="137" height="60" viewBox="0 0 137 60" fill="none" xmlns="http://www.w3.org/2000/svg">
<path d="M9.30864 51.282C9.30864 51.282 9.2644 51.4556 9.15381 51.4556H8.35751C8.35751 51.4556 8.20267 51.406 8.20267 51.282V46.4942H4.15484C4.15484 46.4942 4 46.4446 4 46.3206V45.4275C4 45.4275 4.04424 45.2539 4.15484 45.2539H9.13169C9.13169 45.2539 9.28652 45.3035 9.28652 45.4275V51.282H9.30864ZM5.54835 51.282C5.54835 51.282 5.50412 51.4556 5.39352 51.4556H4.61934C4.61934 51.4556 4.46451 51.406 4.46451 51.282V47.9082C4.46451 47.9082 4.50874 47.7346 4.61934 47.7346H5.39352C5.39352 47.7346 5.54835 47.7842 5.54835 47.9082V51.282ZM14.8606 49.3718C14.8606 49.9424 14.6836 50.4385 14.3076 50.8603C13.9537 51.2572 13.5113 51.4804 13.0026 51.4804H11.5869C11.5869 51.4804 11.4321 51.4308 11.4321 51.3068V50.4882C11.4321 50.4882 11.4763 50.3145 11.5869 50.3145H12.9362C13.1574 50.3145 13.3344 50.2153 13.5113 50.0416C13.6662 49.868 13.7546 49.6695 13.7546 49.3966V46.519H10.304C10.304 46.519 10.1492 46.4694 10.1492 46.3454V44.0135C10.1492 44.0135 10.1934 43.8398 10.304 43.8398H11.0782C11.0782 43.8398 11.233 43.8895 11.233 44.0135V45.2787H14.6836C14.6836 45.2787 14.8385 45.3283 14.8385 45.4523V49.3966L14.8606 49.3718ZM17.9352 48.2555C17.9352 48.2555 17.8909 48.4292 17.7803 48.4292H17.0062C17.0062 48.4292 16.8513 48.3796 16.8513 48.2555V46.4942H15.856C15.856 46.4942 15.7011 46.4446 15.7011 46.3206V45.4275C15.7011 45.4275 15.7454 45.2539 15.856 45.2539H17.8025C17.8025 45.2539 17.9573 45.3035 17.9573 45.4275V48.2555H17.9352ZM24.3498 51.282C24.3498 51.282 24.3056 51.4556 24.195 51.4556H23.3987C23.3987 51.4556 23.2438 51.406 23.2438 51.282V46.4942H19.2181C19.2181 46.4942 19.0633 46.4446 19.0633 46.3206V45.4275C19.0633 45.4275 19.1075 45.2539 19.2181 45.2539H24.195C24.195 45.2539 24.3498 45.3035 24.3498 45.4275V51.282ZM20.5895 51.282C20.5895 51.282 20.5453 51.4556 20.4347 51.4556H19.6605C19.6605 51.4556 19.5057 51.406 19.5057 51.282V47.9082C19.5057 47.9082 19.5499 47.7346 19.6605 47.7346H20.4347C20.4347 47.7346 20.5895 47.7842 20.5895 47.9082V51.282ZM31.2068 49.3718C31.2068 49.9424 31.0298 50.4385 30.6538 50.8603C30.2999 51.2572 29.8575 51.4804 29.3488 51.4804H28.1543C28.1543 51.4804 27.9995 51.4308 27.9995 51.3068V50.4882C27.9995 50.4882 28.0437 50.3145 28.1543 50.3145H29.2824C29.5036 50.3145 29.6806 50.2153 29.8575 50.0416C30.0123 49.868 30.1008 49.6695 30.1008 49.3966V46.519H25.677C25.677 46.519 25.5221 46.4694 25.5221 46.3454V45.4523C25.5221 45.4523 25.5664 45.2787 25.677 45.2787H31.052C31.052 45.2787 31.2068 45.3283 31.2068 45.4523V49.3966V49.3718ZM27.159 53.7131C27.159 53.7131 27.1147 53.8867 27.0041 53.8867H26.2078C26.2078 53.8867 26.053 53.8371 26.053 53.7131V47.9082C26.053 47.9082 26.0972 47.7346 26.2078 47.7346H27.0041C27.0041 47.7346 27.159 47.7842 27.159 47.9082V53.7131ZM37.6656 51.2572C37.6656 51.2572 37.6214 51.4308 37.5108 51.4308H36.7145C36.7145 51.4308 36.5597 51.3812 36.5597 51.2572V46.4694H32.5339C32.5339 46.4694 32.3791 46.4198 32.3791 46.2958V45.4027C32.3791 45.4027 32.4234 45.229 32.5339 45.229H37.5108C37.5108 45.229 37.6656 45.2787 37.6656 45.4027V51.2572ZM33.9053 51.2572C33.9053 51.2572 33.8611 51.4308 33.7505 51.4308H32.9763C32.9763 51.4308 32.8215 51.3812 32.8215 51.2572V47.8834C32.8215 47.8834 32.8657 47.7098 32.9763 47.7098H33.7505C33.7505 47.7098 33.9053 47.7594 33.9053 47.8834V51.2572ZM46.7788 51.2572C46.7788 51.2572 46.7346 51.4308 46.624 51.4308H45.8498C45.8498 51.4308 45.695 51.3812 45.695 51.2572V46.4694H43.2397V49.7936C43.2397 50.9099 42.7531 51.4556 41.802 51.4556H41.072C41.072 51.4556 40.9172 51.406 40.9172 51.282V50.4634C40.9172 50.4634 40.9614 50.2897 41.072 50.2897H41.625C41.9789 50.2897 42.1559 50.0912 42.1559 49.7191V46.4942H41.2711C41.2711 46.4942 41.1163 46.4446 41.1163 46.3206V45.4275C41.1163 45.4275 41.1605 45.2539 41.2711 45.2539H46.6903C46.6903 45.2539 46.8452 45.3035 46.8452 45.4275V51.282L46.7788 51.2572ZM52.198 51.2572C52.198 51.2572 52.1538 51.4308 52.0432 51.4308H51.269C51.269 51.4308 51.1142 51.3812 51.1142 51.2572V47.3625C51.1142 47.0896 51.0478 46.8663 50.893 46.6927C50.7382 46.519 50.5612 46.4446 50.3179 46.4446H47.8627C47.8627 46.4446 47.7078 46.395 47.7078 46.2709V45.3779C47.7078 45.3779 47.7521 45.2042 47.8627 45.2042H50.4949C51.0257 45.2042 51.446 45.3779 51.7778 45.7252C52.0874 46.0725 52.2423 46.5438 52.2423 47.164V51.2572H52.198ZM56.2459 46.2958C56.2459 46.2958 56.2016 46.4694 56.091 46.4694H54.8081L55.3832 47.4369V51.2572C55.3832 51.2572 55.339 51.4308 55.2284 51.4308H54.4542C54.4542 51.4308 54.2994 51.3812 54.2994 51.2572V46.4694H53.1049C53.1049 46.4694 52.9501 46.4198 52.9501 46.2958V45.4027C52.9501 45.4027 52.9943 45.229 53.1049 45.229H56.1132C56.1132 45.229 56.268 45.2787 56.268 45.4027V46.2958H56.2459ZM62.749 49.3718C62.749 49.9424 62.572 50.4385 62.196 50.8603C61.8421 51.2572 61.3997 51.4804 60.8909 51.4804H57.2191C57.2191 51.4804 57.0643 51.4308 57.0643 51.3068V50.4882C57.0643 50.4882 57.1085 50.3145 57.2191 50.3145H58.9444L58.3472 49.5207V46.5438H57.2413C57.2413 46.5438 57.0864 46.4942 57.0864 46.3702V45.4771C57.0864 45.4771 57.1307 45.3035 57.2413 45.3035H59.2984C59.2984 45.3035 59.4532 45.3531 59.4532 45.4771V50.3145H60.8246C61.0458 50.3145 61.2449 50.2153 61.3997 50.0416C61.5545 49.868 61.643 49.6447 61.643 49.3966V46.519H60.4707C60.4707 46.519 60.3158 46.4694 60.3158 46.3454V45.4523C60.3158 45.4523 60.3601 45.2787 60.4707 45.2787H62.5941C62.5941 45.2787 62.749 45.3283 62.749 45.4523V49.3966V49.3718ZM68.7876 51.282C68.7876 51.282 68.7433 51.4556 68.6327 51.4556H63.9434C63.9434 51.4556 63.7886 51.406 63.7886 51.282V50.4634C63.7886 50.4634 63.8328 50.2897 63.9434 50.2897H66.9959V46.519H64.054C64.054 46.519 63.8992 46.4694 63.8992 46.3454V45.4523C63.8992 45.4523 63.9434 45.2787 64.054 45.2787H67.947C67.947 45.2787 68.1018 45.3283 68.1018 45.4523V50.2897H68.6327C68.6327 50.2897 68.7876 50.3393 68.7876 50.4634V51.282ZM77.392 51.282C77.392 51.282 77.3477 51.4556 77.2371 51.4556H76.463C76.463 51.4556 76.3081 51.406 76.3081 51.282V46.4942H73.8529V49.8184C73.8529 50.9347 73.3663 51.4804 72.4151 51.4804H71.6852C71.6852 51.4804 71.5303 51.4308 71.5303 51.3068V50.4882C71.5303 50.4882 71.5746 50.3145 71.6852 50.3145H72.2382C72.5921 50.3145 72.769 50.116 72.769 49.7439V46.519H71.8843C71.8843 46.519 71.7294 46.4694 71.7294 46.3454V45.4523C71.7294 45.4523 71.7737 45.2787 71.8843 45.2787H77.3035C77.3035 45.2787 77.4583 45.3283 77.4583 45.4523V51.3068L77.392 51.282ZM80.4887 48.2555C80.4887 48.2555 80.4444 48.4292 80.3338 48.4292H79.5597C79.5597 48.4292 79.4048 48.3796 79.4048 48.2555V46.4942H78.4095C78.4095 46.4942 78.2546 46.4446 78.2546 46.3206V45.4275C78.2546 45.4275 78.2989 45.2539 78.4095 45.2539H80.356C80.356 45.2539 80.5108 45.3035 80.5108 45.4275V48.2555H80.4887ZM88.6728 49.3718C88.6728 49.9424 88.4959 50.4385 88.1199 50.8603C87.7659 51.2572 87.3236 51.4804 86.7927 51.4804H83.9172C83.4084 51.4804 82.9882 51.3068 82.6785 50.9347C82.3688 50.5626 82.214 50.0912 82.214 49.4959V46.4942H81.4177C81.4177 46.4942 81.2629 46.4446 81.2629 46.3206V45.4275C81.2629 45.4275 81.3071 45.2539 81.4177 45.2539H83.1651C83.1651 45.2539 83.32 45.3035 83.32 45.4275V49.3718C83.32 49.9672 83.5854 50.2649 84.1384 50.2649H86.7263C86.9475 50.2649 87.1245 50.1657 87.3014 49.992C87.4563 49.8184 87.5448 49.6199 87.5448 49.347V46.4694H86.66C86.66 46.4694 86.5051 46.4198 86.5051 46.2958V45.4027C86.5051 45.4027 86.5494 45.229 86.66 45.229H88.4959C88.4959 45.229 88.6507 45.2787 88.6507 45.4027V49.347L88.6728 49.3718ZM85.93 49.5951C85.93 49.5951 85.8858 49.7687 85.7752 49.7687H85.0231C85.0231 49.7687 84.8683 49.7191 84.8683 49.5951V46.4942H84.1384C84.1384 46.4942 83.9835 46.4446 83.9835 46.3206V45.4275C83.9835 45.4275 84.0278 45.2539 84.1384 45.2539H85.7752C85.7752 45.2539 85.93 45.3035 85.93 45.4275V49.5951ZM95.1538 51.282C95.1538 51.282 95.1096 51.4556 94.999 51.4556H90.0664C90.0664 51.4556 89.9115 51.406 89.9115 51.282V50.4634C89.9115 50.4634 89.9558 50.2897 90.0664 50.2897H94.0478V47.4121C94.0478 47.1392 93.9815 46.9159 93.8266 46.7423C93.6718 46.5686 93.4949 46.4942 93.2294 46.4942H91.7032V48.6028C91.7032 48.6028 91.659 48.7765 91.5484 48.7765H90.7521C90.7521 48.7765 90.5972 48.7269 90.5972 48.6028V46.4942H89.7567C89.7567 46.4942 89.6019 46.4446 89.6019 46.3206V45.4275C89.6019 45.4275 89.6461 45.2539 89.7567 45.2539H93.4064C93.9372 45.2539 94.3575 45.4275 94.6893 45.7748C94.999 46.1221 95.1538 46.5934 95.1538 47.2136V51.3068V51.282ZM98.5823 51.2324C98.5823 51.3812 98.5159 51.4556 98.3832 51.4556H96.1934C96.1934 51.4556 96.0386 51.406 96.0386 51.282V50.4634C96.0386 50.4634 96.0828 50.2897 96.1934 50.2897H97.4763V46.519H96.2819C96.2819 46.519 96.1271 46.4694 96.1271 46.3454V45.4523C96.1271 45.4523 96.1713 45.2787 96.2819 45.2787H98.4275C98.4275 45.2787 98.5823 45.3283 98.5823 45.4523V51.2572V51.2324ZM107.342 51.282C107.342 51.282 107.297 51.4556 107.187 51.4556H106.39C106.39 51.4556 106.236 51.406 106.236 51.282V46.4942H102.21C102.21 46.4942 102.055 46.4446 102.055 46.3206V45.4275C102.055 45.4275 102.099 45.2539 102.21 45.2539H107.187C107.187 45.2539 107.342 45.3035 107.342 45.4275V51.282ZM103.581 51.282C103.581 51.282 103.537 51.4556 103.426 51.4556H102.652C102.652 51.4556 102.497 51.406 102.497 51.282V47.9082C102.497 47.9082 102.542 47.7346 102.652 47.7346H103.426C103.426 47.7346 103.581 47.7842 103.581 47.9082V51.282ZM114.331 51.282C114.331 51.282 114.287 51.4556 114.176 51.4556H111.367C111.367 51.4556 111.212 51.406 111.212 51.282V50.4634C111.212 50.4634 111.257 50.2897 111.367 50.2897H113.225V47.4121C113.225 47.1392 113.159 46.9159 113.004 46.7423C112.849 46.5686 112.672 46.4942 112.429 46.4942H110.571C110.394 46.4942 110.306 46.5934 110.306 46.7919V51.282C110.306 51.282 110.261 51.4556 110.151 51.4556H109.354C109.354 51.4556 109.2 51.406 109.2 51.282V46.4942H108.359C108.359 46.4942 108.204 46.4446 108.204 46.3206V45.4275C108.204 45.4275 108.248 45.2539 108.359 45.2539H110.151C110.151 45.2539 110.306 45.3035 110.306 45.4275V45.9733L111.124 45.2539H112.717C113.8 45.2539 114.353 45.8988 114.353 47.164V51.3068L114.331 51.282ZM119.795 49.3718C119.795 49.9424 119.618 50.4385 119.242 50.8603C118.888 51.2572 118.445 51.4804 117.937 51.4804H116.521C116.521 51.4804 116.366 51.4308 116.366 51.3068V50.4882C116.366 50.4882 116.41 50.3145 116.521 50.3145H117.87C118.092 50.3145 118.269 50.2153 118.445 50.0416C118.6 49.868 118.689 49.6695 118.689 49.3966V46.519H115.238C115.238 46.519 115.083 46.4694 115.083 46.3454V44.0135C115.083 44.0135 115.128 43.8398 115.238 43.8398H116.012C116.012 43.8398 116.167 43.8895 116.167 44.0135V45.2787H119.618C119.618 45.2787 119.773 45.3283 119.773 45.4523V49.3966L119.795 49.3718ZM126.63 51.282C126.63 51.282 126.585 51.4556 126.475 51.4556H125.678C125.678 51.4556 125.524 51.406 125.524 51.282V47.3873C125.524 46.7919 125.258 46.4694 124.727 46.4694H122.759V51.2572C122.759 51.2572 122.715 51.4308 122.604 51.4308H121.83C121.83 51.4308 121.675 51.3812 121.675 51.2572V46.4694H120.879C120.879 46.4694 120.724 46.4198 120.724 46.2958V45.4027C120.724 45.4027 120.768 45.229 120.879 45.229H124.993C126.121 45.229 126.674 45.874 126.674 47.1888V51.282H126.63ZM133 51.282C133 51.282 132.956 51.4556 132.845 51.4556H132.049C132.049 51.4556 131.894 51.406 131.894 51.282V46.4942H127.868C127.868 46.4942 127.713 46.4446 127.713 46.3206V45.4275C127.713 45.4275 127.758 45.2539 127.868 45.2539H132.845C132.845 45.2539 133 45.3035 133 45.4275V51.282ZM129.24 51.282C129.24 51.282 129.195 51.4556 129.085 51.4556H128.311C128.311 51.4556 128.156 51.406 128.156 51.282V47.9082C128.156 47.9082 128.2 47.7346 128.311 47.7346H129.085C129.085 47.7346 129.24 47.7842 129.24 47.9082V51.282Z" fill="#CFCFCF"/>
<path d="M27.1995 34.2638C27.1995 35.9015 26.5912 36.6722 25.3748 36.6722H5.82468C4.60823 36.6722 4 35.8534 4 34.2638V9.40846C4 7.77071 4.60823 7 5.82468 7H25.3748C26.5912 7 27.1995 7.81888 27.1995 9.40846V34.2156V34.2638ZM18.3802 29.3023V14.3699H12.7758V29.2542H18.3802V29.3023ZM39.755 24.2446H30.9357V7H39.755V24.1964V24.2446ZM67.2989 36.7204H58.4797V14.3699H55.2213V34.2156C55.2213 35.8534 54.6131 36.6241 53.4401 36.6241H43.3175V29.2542H46.4889V14.3699H43.7953V7H65.5177C66.7342 7 67.2989 7.81888 67.2989 9.40846V36.6722V36.7204ZM79.8544 24.2446H71.0352V7H79.8544V24.1964V24.2446ZM106.703 34.3119C106.703 35.9497 106.095 36.7204 104.879 36.7204H94.756V29.3505H97.9274V14.4662H95.2773L92.1058 36.6722H83.1997L86.8056 14.4662H83.6341V7H104.661C106.008 7 106.703 7.86705 106.703 9.64931V34.2638V34.3119ZM132.292 34.2156C132.292 35.9015 131.51 36.7686 129.99 36.7686H110.222V29.3023H113.828L110.613 7.09634H119.78L122.474 29.3023H123.473V7H132.292V34.1193V34.2156Z" fill="#CFCFCF"/>
</svg>
