<svg width="134" height="46" viewBox="0 0 134 46" fill="none" xmlns="http://www.w3.org/2000/svg">
<path fill-rule="evenodd" clip-rule="evenodd" d="M100.715 10.9887C103.383 11.0269 105.635 8.51899 105.635 5.50949C105.635 2.4791 103.368 -0.0320509 100.662 0.000309304C98.0309 0.031787 95.7425 2.56942 95.7388 5.45948C95.7353 8.47398 97.9628 10.949 100.715 10.9887ZM125.007 25.3081C125.17 25.7885 125.008 25.8291 124.638 25.8268C123.298 25.8172 121.957 25.8184 120.617 25.8197C120.157 25.8202 119.696 25.8206 119.236 25.8206L118.458 25.8207L117.7 25.821C116.456 25.8214 115.212 25.8218 113.967 25.8197C113.263 25.8186 113.236 25.7806 113.502 25.0349C114.367 22.609 116.03 21.3178 118.344 21.0516C119.919 20.8704 121.445 21.0645 122.815 22.0789C123.896 22.8791 124.561 23.9899 125.007 25.3081ZM51.1076 25.2107C51.2907 25.7311 51.1699 25.8341 50.7038 25.8288C49.3888 25.8137 48.0736 25.8161 46.7584 25.8185C46.2726 25.8194 45.7868 25.8202 45.301 25.8202C44.8135 25.8202 44.326 25.819 43.8385 25.8179H43.8385H43.8384C42.5473 25.8147 41.2561 25.8115 39.9654 25.8305C39.4642 25.8379 39.4089 25.6808 39.5733 25.1992C40.4247 22.7048 42.0765 21.3372 44.4504 21.0536C46.0722 20.86 47.641 21.0674 49.0363 22.1438C50.0417 22.9193 50.6714 23.9713 51.1076 25.2107ZM79.7085 26.9545C79.709 28.065 79.7095 29.1755 79.7079 30.2861C79.7079 30.3197 79.711 30.3545 79.7142 30.3901C79.7257 30.5183 79.7381 30.6577 79.6071 30.7956C77.7551 27.2057 74.506 26.1443 71.2205 25.1561C71.0896 25.1167 70.9586 25.0777 70.8276 25.0387C69.9072 24.7646 68.9871 24.4905 68.1015 24.095C67.2373 23.7093 66.8247 23.1345 66.8937 22.4561C66.9707 21.6956 67.5194 21.1828 68.4446 21.0013C70.1602 20.6645 71.5395 21.279 72.4647 22.8891C72.8401 23.5422 73.1163 23.5031 73.6516 23.1718C74.6737 22.5387 75.7071 21.9278 76.7406 21.3169L76.7407 21.3169L76.7408 21.3168C77.5291 20.8508 78.3175 20.3849 79.1007 19.909C79.5643 19.6272 79.7272 19.6131 79.7224 20.2921C79.7063 22.5127 79.7074 24.7336 79.7085 26.9545ZM71.1242 36.4979C69.4888 37.3554 66.0546 37.3004 64.7115 34.3944C64.6095 34.1738 64.5122 33.9505 64.4094 33.7144L64.4091 33.7137L64.409 33.7134L64.407 33.7088C64.3588 33.5982 64.3094 33.4848 64.2577 33.3674C63.653 33.7438 63.049 34.1183 62.446 34.4922L62.4447 34.4931C60.7561 35.5402 59.075 36.5827 57.4051 37.6466C56.9658 37.9264 56.6462 37.9535 56.2007 37.6531C55.3977 37.1117 54.5818 36.593 53.7659 36.0744L53.7656 36.0742C53.1565 35.687 52.5473 35.2998 51.9435 34.9031C51.6258 34.6942 51.4362 34.6863 51.1472 34.9866C48.5548 37.6802 43.6777 37.3325 41.5423 35.6047C40.6377 34.8728 39.9908 33.9464 39.5985 32.6999C39.6884 32.6955 39.7735 32.6903 39.8556 32.6852C40.0242 32.6748 40.1796 32.6652 40.3352 32.6652C41.3119 32.6649 42.2886 32.6644 43.2653 32.6639C48.3452 32.6614 53.425 32.6589 58.5049 32.6779C59.0349 32.6796 59.2223 32.5228 59.2996 31.9415C59.49 30.5059 59.5296 29.0685 59.4699 27.5097C59.6112 27.6774 59.7434 27.8392 59.871 27.9954L59.8712 27.9956L59.8712 27.9956C60.1339 28.3171 60.377 28.6147 60.639 28.8903C62.2145 30.5453 64.1962 31.3399 66.2177 32.053C66.7385 32.2366 67.2663 32.3956 67.7939 32.5546L67.7941 32.5547L67.7942 32.5547C68.7444 32.841 69.6944 33.1272 70.6036 33.5569C70.8274 33.6625 71.0515 33.7799 71.2528 33.9287C72.243 34.6624 72.2056 35.931 71.1242 36.4979ZM16.7117 37.3428C12.673 37.376 9.37676 33.8032 9.36232 29.3766C9.34761 24.87 12.5342 21.3068 16.5866 21.298C20.6026 21.2898 23.8111 24.8208 23.84 29.2819C23.8689 33.6664 20.6465 37.3107 16.7117 37.3428ZM31.0652 25.3282C28.7805 14.3434 16.4605 9.4355 8.17435 16.6589V16.0423C8.17435 11.4112 8.18986 1.56049 8.18986 1.56049L0 1.60873C0 1.60873 0.0139047 21.8489 0.0139047 31.6746C0.0139047 35.6935 0.00187178 44.0245 0.00187178 44.0245H4.81877C4.81877 44.0245 8.21713 38.7053 9.90281 36.2692C10.1921 35.8511 10.3748 35.8117 10.7015 36.2115C10.981 36.5537 11.3157 36.862 11.6727 37.1011C12.0177 37.3318 12 37.4927 11.7708 37.8104C11.3992 38.3256 11.0355 38.8479 10.6719 39.3701C10.196 40.0535 9.72011 40.7369 9.22629 41.4045C8.89338 41.8543 8.84953 42.0625 9.35036 42.4285C17.1632 48.1383 27.9024 43.87 30.7678 33.8948C30.8389 33.6474 30.9065 33.3985 30.9794 33.1303L30.9795 33.1299L30.9796 33.1295C31.0161 32.9952 31.0539 32.8561 31.0941 32.7099C31.1108 32.7571 31.124 32.7929 31.1346 32.8214L31.1347 32.8216C31.1525 32.8698 31.1629 32.8977 31.1697 32.9267C31.1904 33.0127 31.2099 33.099 31.2293 33.1853L31.2294 33.1853C31.2528 33.2891 31.2762 33.3928 31.3016 33.4959C32.4367 38.0828 34.9016 41.4595 38.8288 43.507C41.4704 44.8844 44.2749 45.2933 47.1564 45.1253C51.2449 44.8873 54.7844 43.3111 57.4611 39.7723C57.7622 39.374 57.8876 39.3781 58.1555 39.802C59.665 42.1923 61.752 43.6929 64.2771 44.4796C67.331 45.4307 70.4096 45.3801 73.4488 44.4925C76.5255 43.5935 78.9417 41.7431 80.0383 38.2579C80.0493 38.2228 80.0822 38.1958 80.1192 38.1654C80.1378 38.1502 80.1573 38.1341 80.1757 38.1158C80.2367 38.3258 80.2904 38.512 80.3447 38.6977C81.1105 41.3159 82.6775 43.0272 85.0827 43.8212C87.7642 44.7058 90.4927 44.5755 93.2311 44.3445C93.5967 44.3133 93.7071 44.1445 93.7042 43.7423C93.6881 41.3656 93.6852 38.9886 93.7052 36.6122C93.7095 36.1271 93.5841 35.9853 93.1402 36.0035L92.8994 36.0137C91.9353 36.0549 90.9686 36.0962 90.0109 35.877C88.5552 35.5434 87.9936 34.8194 87.9902 33.1903C87.9876 31.982 87.9883 30.7738 87.989 29.5656C87.9902 27.4413 87.9914 25.317 87.9752 23.1927C87.9712 22.6279 88.126 22.5017 88.6153 22.507C91.088 22.5337 93.5611 22.5467 96.0332 22.5008C96.676 22.4887 96.7875 22.722 96.7857 23.3651C96.7753 26.8443 96.7741 30.3234 96.7729 33.8025C96.7718 37.0373 96.7706 40.2722 96.7621 43.507C96.7605 44.0871 96.8501 44.3078 97.4381 44.2975C99.7543 44.2569 102.072 44.2648 104.388 44.293C104.899 44.2995 105.071 44.1683 105.065 43.5705C105.044 41.2689 105.047 38.9671 105.05 36.6651C105.051 35.8551 105.052 35.045 105.052 34.2349V33.4859C105.229 33.671 105.284 33.8675 105.338 34.0627L105.343 34.0802C106.546 38.3882 108.959 41.5986 112.689 43.4611C116.806 45.5163 121.082 45.7231 125.39 44.2301C127.964 43.3381 130.069 41.6525 131.714 39.286L131.74 39.2491C131.902 39.0169 132.018 38.8527 131.655 38.6262C130.032 37.6125 128.42 36.5782 126.808 35.5439L126.795 35.5357C126.432 35.3027 126.069 35.0696 125.705 34.8368C125.522 34.72 125.377 34.6332 125.176 34.8395C123.424 36.6475 121.287 37.1203 118.985 36.8993C116.743 36.6843 114.836 35.7979 113.751 33.4406C113.4 32.6793 113.409 32.6654 114.173 32.6651C115.39 32.6651 116.606 32.6648 117.822 32.6644C122.687 32.6632 127.553 32.6619 132.418 32.6772C132.92 32.6787 133.104 32.5283 133.177 31.9682C133.361 30.5511 133.377 29.1329 133.286 27.7155C132.984 23.0539 131.365 19.0906 128.008 16.1202C125.188 13.6247 121.921 12.663 118.335 12.9239C113.169 13.2999 109.176 15.8034 106.546 20.7854C105.941 21.93 105.548 23.1692 105.153 24.4166L105.103 24.5736C105.053 21.2037 105.035 17.8483 105.067 14.4934C105.073 13.8424 104.92 13.6803 104.33 13.6835C99.5925 13.7083 94.855 13.7032 90.1176 13.6981L88.8252 13.6967C88.7156 13.6966 88.6201 13.6984 88.537 13.6999C88.2701 13.7048 88.131 13.7073 88.0592 13.639C87.981 13.5646 87.983 13.4059 87.9871 13.0743C87.9883 12.9792 87.9897 12.8698 87.9893 12.7442C87.984 10.4166 87.9984 5.46666 87.9984 5.46666L79.6963 8.3276C79.6963 8.3276 79.7072 14.8947 79.7056 18.0313C79.7055 18.1778 79.6962 18.3244 79.684 18.5184V18.5185C79.6774 18.6247 79.6698 18.7451 79.6623 18.8876C78.5703 17.0766 77.2908 15.7396 75.73 14.7376C72.7314 12.8121 69.5009 12.5103 66.171 13.2137C63.8187 13.7103 61.7467 14.8561 60.1955 16.9404C59.0655 18.4596 58.52 20.2388 58.397 22.2928C55.158 15.0168 49.8879 11.9125 42.7689 13.1449C36.4698 14.2357 32.6565 18.5614 31.0652 25.3282ZM16.2916 22.6364C17.8973 22.6426 19.0778 23.0759 20.1351 23.907C20.4039 24.1182 20.7202 24.388 20.4528 24.8031C20.1969 25.2005 19.9033 25.0105 19.5945 24.7887C17.1988 23.0695 14.7891 23.3695 12.8167 25.613C12.7977 25.6348 12.778 25.6559 12.7583 25.677L12.7583 25.6771C12.7302 25.7071 12.7022 25.7372 12.6761 25.7692C12.4584 26.0363 12.2162 26.1699 11.9295 25.8983C11.6338 25.6189 11.7541 25.3511 11.9589 25.0776C13.1603 23.4728 14.7185 22.6941 16.2916 22.6364ZM11.387 27.4121C11.6595 27.4024 11.8135 27.2112 11.8071 26.8982C11.8034 26.5508 11.6221 26.4301 11.3381 26.4487C11.0742 26.4655 10.9402 26.6461 10.9381 26.9164C10.9357 27.2292 11.1087 27.4218 11.387 27.4121Z" fill="#CFCFCF"/>
</svg>
