<svg width="145" height="64" viewBox="0 0 145 64" fill="none" xmlns="http://www.w3.org/2000/svg">
<path fill-rule="evenodd" clip-rule="evenodd" d="M107.996 17.4551C110.777 17.495 113.125 14.8806 113.125 11.7434C113.125 8.58433 110.762 5.96659 107.941 6.00032C105.198 6.03314 102.812 8.67848 102.809 11.6912C102.805 14.8337 105.127 17.4137 107.996 17.4551ZM133.316 32.3791C133.485 32.8799 133.316 32.9222 132.931 32.9197C131.534 32.9097 130.136 32.911 128.739 32.9124C128.259 32.9128 127.78 32.9133 127.3 32.9133C126.766 32.9133 126.232 32.9135 125.698 32.9137H125.698H125.698C124.401 32.9141 123.104 32.9146 121.807 32.9124C121.073 32.9112 121.045 32.8716 121.322 32.0942C122.224 29.5654 123.957 28.2194 126.37 27.9419C128.012 27.7529 129.602 27.9553 131.03 29.0127C132.157 29.8469 132.85 31.0049 133.316 32.3791ZM56.2821 32.2798C56.4731 32.8223 56.3471 32.9296 55.8612 32.9241C54.4905 32.9084 53.1194 32.9109 51.7483 32.9134C51.2419 32.9143 50.7355 32.9152 50.2291 32.9152C49.721 32.9152 49.2128 32.914 48.7046 32.9127H48.7046H48.7045C47.3586 32.9094 46.0126 32.9061 44.667 32.926C44.1446 32.9336 44.0869 32.7699 44.2583 32.2678C45.1459 29.6676 46.8677 28.2418 49.3424 27.9462C51.033 27.7444 52.6685 27.9606 54.123 29.0827C55.1711 29.8911 55.8275 30.9878 56.2821 32.2798ZM86.0891 34.1007C86.0897 35.2585 86.0902 36.4163 86.0886 37.5741C86.0885 37.6092 86.0917 37.6454 86.0951 37.6825C86.107 37.8162 86.1201 37.9615 85.9835 38.1053C84.0529 34.363 80.6658 33.2565 77.2408 32.2264C77.1044 32.1853 76.9678 32.1447 76.8313 32.104C75.8718 31.8183 74.9126 31.5326 73.9895 31.1202C73.0886 30.7182 72.6585 30.1189 72.7304 29.4118C72.8107 28.619 73.3827 28.0845 74.3471 27.8953C76.1356 27.5441 77.5734 28.1848 78.5378 29.8632C78.9292 30.544 79.2171 30.5032 79.7752 30.1579C80.8406 29.4979 81.9179 28.8611 82.9953 28.2243L82.9953 28.2242L82.9954 28.2242C83.8173 27.7384 84.6391 27.2526 85.4555 26.7566C85.9389 26.4628 86.1086 26.4481 86.1036 27.1559C86.0869 29.4707 86.088 31.7856 86.0891 34.1007ZM77.1412 44.0494C75.4364 44.9433 71.8564 44.886 70.4563 41.8567C70.3499 41.6266 70.2485 41.3938 70.1413 41.1476L70.141 41.1469L70.1408 41.1466C70.09 41.0298 70.0379 40.9101 69.9832 40.7861C69.3528 41.1784 68.7233 41.5688 68.0947 41.9586C66.334 43.0505 64.581 44.1375 62.8397 45.2469C62.3818 45.5386 62.0487 45.5668 61.5843 45.2537C60.7471 44.6892 59.8966 44.1486 59.0461 43.608C58.411 43.2043 57.7759 42.8006 57.1463 42.3869C56.8152 42.1692 56.6175 42.1609 56.3162 42.474C53.6137 45.2819 48.5296 44.9194 46.3036 43.1183C45.3606 42.3553 44.6863 41.3896 44.2773 40.0903C44.3708 40.0856 44.4594 40.0802 44.5449 40.0749L44.5453 40.0749C44.7211 40.0641 44.8831 40.0541 45.0453 40.0541C46.0633 40.0537 47.0812 40.0532 48.0992 40.0527C53.3949 40.0501 58.6905 40.0475 63.9862 40.0673C64.5387 40.0691 64.7341 39.9056 64.8147 39.2997C65.0131 37.8031 65.0544 36.3047 64.9922 34.6797C65.1391 34.8541 65.2767 35.0224 65.4094 35.1848L65.4105 35.1862L65.4105 35.1862L65.4106 35.1864L65.4109 35.1867C65.6846 35.5217 65.9379 35.8317 66.2109 36.1189C67.8533 37.8442 69.9191 38.6725 72.0264 39.4159C72.5695 39.6073 73.1197 39.7731 73.6699 39.9389C74.6603 40.2373 75.6507 40.5357 76.5985 40.9836C76.8318 41.0937 77.0654 41.216 77.2753 41.3712C78.3075 42.1361 78.2685 43.4584 77.1412 44.0494ZM20.4193 44.9212C16.2091 44.9558 12.773 41.2313 12.7579 36.6168C12.7426 31.9189 16.0644 28.2045 20.2889 28.1953C24.4754 28.1867 27.8201 31.8677 27.8502 36.5181C27.8803 41.0887 24.5211 44.8877 20.4193 44.9212ZM35.3838 32.4016C33.0022 20.9504 20.1592 15.8343 11.5213 23.3643V22.7215C11.5213 17.8939 11.5375 7.62497 11.5375 7.62497L3 7.67527C3 7.67527 3.01449 28.7745 3.01449 39.0174C3.01449 43.2068 3.00195 51.8914 3.00195 51.8914H8.02332C8.02332 51.8914 11.5659 46.3465 13.3232 43.807C13.6248 43.3712 13.8152 43.3301 14.1558 43.7468C14.4471 44.1035 14.7961 44.4249 15.1682 44.6742C15.5278 44.9147 15.5094 45.0824 15.2705 45.4136C14.8831 45.9506 14.5041 46.4949 14.1251 47.0391L14.1249 47.0395L14.1248 47.0396L14.1247 47.0397C13.6287 47.7521 13.1327 48.4644 12.6179 49.1602C12.2709 49.6291 12.2252 49.8462 12.7473 50.2277C20.8917 56.1799 32.0868 51.7304 35.0739 41.3318C35.148 41.0735 35.2186 40.8137 35.2947 40.5337C35.3327 40.3938 35.3721 40.2489 35.414 40.0965C35.4227 40.1214 35.4306 40.1431 35.4376 40.1624C35.4446 40.1815 35.4508 40.1982 35.4563 40.213C35.4749 40.2632 35.4857 40.2924 35.4928 40.3226C35.5144 40.4123 35.5347 40.5023 35.555 40.5922C35.5794 40.7004 35.6038 40.8085 35.6303 40.916C36.8135 45.6976 39.383 49.2176 43.477 51.352C46.2308 52.7878 49.1543 53.2141 52.1581 53.039C56.4201 52.7909 60.1099 51.1477 62.9002 47.4588C63.2141 47.0436 63.3448 47.0479 63.6241 47.4898C65.1976 49.9815 67.3733 51.5458 70.0055 52.3658C73.1891 53.3573 76.3983 53.3046 79.5665 52.3793C82.7738 51.4422 85.2926 49.5132 86.4357 45.8801C86.4473 45.8435 86.4815 45.8153 86.5201 45.7837C86.5363 45.7704 86.5533 45.7564 86.5697 45.7409L86.579 45.7319L86.636 45.9286C86.6773 46.0709 86.7161 46.2048 86.7552 46.3385C87.5535 49.0679 89.187 50.8518 91.6943 51.6795C94.4896 52.6017 97.334 52.4658 100.189 52.2251C100.57 52.1926 100.685 52.0165 100.682 51.5973C100.665 49.1197 100.662 46.6418 100.683 44.1645C100.687 43.6588 100.557 43.511 100.094 43.53C100.032 43.5326 99.9699 43.5352 99.9079 43.5378L99.8428 43.5406C98.8377 43.5836 97.83 43.6266 96.8316 43.3982C95.3141 43.0504 94.7288 42.2957 94.7252 40.5973C94.7225 39.3378 94.7232 38.0783 94.7239 36.8188C94.7252 34.6044 94.7264 32.3899 94.7095 30.1754C94.7054 29.5866 94.8668 29.4551 95.3769 29.4606C97.9545 29.4885 100.533 29.502 103.11 29.4541C103.78 29.4416 103.896 29.6848 103.894 30.3551C103.883 33.9827 103.882 37.6102 103.881 41.2376C103.88 44.6091 103.878 47.9805 103.869 51.352C103.868 51.9567 103.961 52.1868 104.574 52.176C106.989 52.1337 109.404 52.142 111.819 52.1714C112.352 52.1782 112.531 52.0414 112.525 51.4182C112.503 49.0189 112.506 46.6194 112.509 44.2197V44.2196V44.2196C112.51 43.3752 112.512 42.5308 112.512 41.6863V40.9055C112.696 41.0985 112.753 41.3033 112.809 41.5068L112.814 41.525C114.068 46.0159 116.584 49.3626 120.473 51.3041C124.764 53.4466 129.222 53.6621 133.713 52.1058C136.396 51.176 138.59 49.4187 140.305 46.9519L140.332 46.9134C140.501 46.6714 140.621 46.5001 140.243 46.264C138.552 45.2075 136.872 44.1294 135.191 43.0512C134.808 42.8053 134.425 42.5594 134.041 42.3138C133.851 42.192 133.699 42.1016 133.49 42.3165C131.663 44.2013 129.436 44.6942 127.036 44.4638C124.699 44.2397 122.711 43.3157 121.579 40.8583C121.213 40.0647 121.223 40.0502 122.02 40.0499C123.287 40.0499 124.555 40.0495 125.823 40.0492C130.895 40.0479 135.967 40.0466 141.039 40.0625C141.563 40.064 141.754 39.9073 141.83 39.3234C142.022 37.8462 142.039 36.3677 141.943 34.8902C141.629 30.0307 139.941 25.8992 136.442 22.8027C133.502 20.2013 130.096 19.1987 126.358 19.4708C120.973 19.8627 116.81 22.4725 114.068 27.6659C113.438 28.8591 113.029 30.1509 112.616 31.4513L112.564 31.6149C112.512 28.102 112.494 24.6041 112.527 21.1069C112.534 20.4282 112.374 20.2592 111.759 20.2626C106.82 20.2884 101.881 20.2831 96.9425 20.2778L95.5957 20.2764C95.4814 20.2763 95.3819 20.2781 95.2953 20.2797L95.2952 20.2797C95.017 20.2848 94.8719 20.2874 94.7972 20.2162C94.7157 20.1386 94.7177 19.9732 94.722 19.6275C94.7232 19.5284 94.7246 19.4144 94.7243 19.2834C94.7187 16.857 94.7338 11.697 94.7338 11.697L86.0792 14.6793C86.0792 14.6793 86.0906 21.5251 86.089 24.7949C86.0888 24.9476 86.0792 25.1004 86.0665 25.3026C86.0595 25.4134 86.0516 25.539 86.0438 25.6876C84.9054 23.7997 83.5716 22.4059 81.9445 21.3614C78.8187 19.3542 75.4511 19.0396 71.9799 19.7728C69.5277 20.2905 67.3677 21.485 65.7507 23.6577C64.5727 25.2414 64.004 27.0961 63.8758 29.2373C60.4993 21.6524 55.0055 18.4164 47.5844 19.7011C41.0179 20.8382 37.0427 25.3475 35.3838 32.4016ZM19.9818 29.5977C21.6557 29.6041 22.8864 30.0558 23.9885 30.9222C24.2687 31.1424 24.5984 31.4236 24.3197 31.8563C24.0529 32.2706 23.7469 32.0725 23.4249 31.8413C20.9276 30.0491 18.4155 30.3619 16.3595 32.7006C16.3396 32.7233 16.3191 32.7453 16.2986 32.7673L16.2986 32.7673C16.2693 32.7987 16.2401 32.83 16.2129 32.8634C15.986 33.1419 15.7334 33.2811 15.4346 32.998C15.1263 32.7067 15.2517 32.4276 15.4653 32.1424C16.7177 30.4695 18.3419 29.6578 19.9818 29.5977ZM14.8704 34.5766C15.1544 34.5664 15.315 34.3671 15.3083 34.0408C15.3044 33.6786 15.1154 33.5529 14.8194 33.5722C14.5443 33.5897 14.4046 33.778 14.4024 34.0598C14.3999 34.3858 14.5802 34.5867 14.8704 34.5766Z" fill="#CFCFCF"/>
</svg>
