<svg width="28" height="28" viewBox="0 0 28 28" fill="none" xmlns="http://www.w3.org/2000/svg">
<path d="M14.4855 0.589844C12.7109 0.589844 10.9538 0.948041 9.31434 1.64398C7.67489 2.33993 6.18525 3.35998 4.93047 4.64592C2.39632 7.24298 0.972656 10.7653 0.972656 14.4381C0.972656 20.5591 4.85084 25.7522 10.2154 27.594C10.8911 27.7048 11.1073 27.2755 11.1073 26.9016V24.5613C7.36422 25.3922 6.56696 22.7056 6.56696 22.7056C5.94537 21.0992 5.06704 20.6699 5.06704 20.6699C3.83737 19.8113 5.16163 19.839 5.16163 19.839C6.51291 19.9359 7.22909 21.2654 7.22909 21.2654C8.40471 23.3703 10.3911 22.7471 11.1613 22.4148C11.2829 21.5146 11.6343 20.9053 12.0126 20.5591C9.01278 20.2129 5.8643 19.0219 5.8643 13.7457C5.8643 12.2086 6.37778 10.9761 7.25612 9.99284C7.12099 9.64663 6.64804 8.20641 7.39125 6.33689C7.39125 6.33689 8.52632 5.96299 11.1073 7.74942C12.1748 7.44475 13.3369 7.29242 14.4855 7.29242C15.6341 7.29242 16.7962 7.44475 17.8637 7.74942C20.4446 5.96299 21.5797 6.33689 21.5797 6.33689C22.3229 8.20641 21.85 9.64663 21.7148 9.99284C22.5932 10.9761 23.1067 12.2086 23.1067 13.7457C23.1067 19.0358 19.9447 20.199 16.9313 20.5452C17.4178 20.9745 17.8637 21.8193 17.8637 23.1072V26.9016C17.8637 27.2755 18.0799 27.7187 18.769 27.594C24.1336 25.7384 27.9983 20.5591 27.9983 14.4381C27.9983 12.6196 27.6488 10.8188 26.9697 9.13863C26.2906 7.45848 25.2953 5.93185 24.0405 4.64592C22.7857 3.35998 21.2961 2.33993 19.6566 1.64398C18.0172 0.948041 16.26 0.589844 14.4855 0.589844Z" fill="white"/>
</svg>
