<svg width="29" height="27" viewBox="0 0 29 27" fill="none" xmlns="http://www.w3.org/2000/svg">
<path d="M23.9533 0.392578H5.40628C2.77879 0.392578 0.769531 2.29737 0.769531 4.78825V22.371C0.769531 24.8618 2.77879 26.7666 5.40628 26.7666H23.9533C26.5808 26.7666 28.59 24.8618 28.59 22.371V4.78825C28.59 2.29737 26.5808 0.392578 23.9533 0.392578ZM14.6798 9.18393C17.3073 9.18393 19.3165 11.0887 19.3165 13.5796C19.3165 16.0705 17.3073 17.9753 14.6798 17.9753C12.0523 17.9753 10.043 16.0705 10.043 13.5796C10.043 11.0887 12.0523 9.18393 14.6798 9.18393ZM20.553 6.25348C20.553 5.22782 21.4804 4.49521 22.4077 4.49521C23.3351 4.49521 24.2624 5.37434 24.2624 6.25348C24.2624 7.13261 23.4896 8.01175 22.4077 8.01175C21.3258 8.01175 20.553 7.27914 20.553 6.25348V6.25348ZM23.9533 23.8362H5.40628C4.47893 23.8362 3.8607 23.2501 3.8607 22.371V13.5796H6.95187C6.95187 17.6822 10.3522 20.9057 14.6798 20.9057C19.0074 20.9057 22.4077 17.6822 22.4077 13.5796H25.4989V22.371C25.4989 23.2501 24.8806 23.8362 23.9533 23.8362Z" fill="white"/>
</svg>
