<svg width="168" height="16" viewBox="0 0 168 16" fill="none" xmlns="http://www.w3.org/2000/svg">
<path d="M0.974 15V0.299999H3.704V12.69H11.39V15H0.974ZM23.3167 15.21C22.1687 15.21 21.1117 15.021 20.1457 14.643C19.1797 14.265 18.3397 13.74 17.6257 13.068C16.9117 12.382 16.3587 11.584 15.9667 10.674C15.5747 9.75 15.3787 8.742 15.3787 7.65C15.3787 6.558 15.5747 5.557 15.9667 4.647C16.3587 3.723 16.9117 2.925 17.6257 2.253C18.3397 1.567 19.1797 1.035 20.1457 0.656999C21.1117 0.278999 22.1617 0.0899992 23.2957 0.0899992C24.4437 0.0899992 25.4937 0.278999 26.4457 0.656999C27.4117 1.035 28.2517 1.567 28.9657 2.253C29.6797 2.925 30.2327 3.723 30.6247 4.647C31.0167 5.557 31.2127 6.558 31.2127 7.65C31.2127 8.742 31.0167 9.75 30.6247 10.674C30.2327 11.598 29.6797 12.396 28.9657 13.068C28.2517 13.74 27.4117 14.265 26.4457 14.643C25.4937 15.021 24.4507 15.21 23.3167 15.21ZM23.2957 12.816C24.0377 12.816 24.7237 12.69 25.3537 12.438C25.9837 12.186 26.5297 11.829 26.9917 11.367C27.4537 10.891 27.8107 10.345 28.0627 9.729C28.3287 9.099 28.4617 8.406 28.4617 7.65C28.4617 6.894 28.3287 6.208 28.0627 5.592C27.8107 4.962 27.4537 4.416 26.9917 3.954C26.5297 3.478 25.9837 3.114 25.3537 2.862C24.7237 2.61 24.0377 2.484 23.2957 2.484C22.5537 2.484 21.8677 2.61 21.2377 2.862C20.6217 3.114 20.0757 3.478 19.5997 3.954C19.1377 4.416 18.7737 4.962 18.5077 5.592C18.2557 6.208 18.1297 6.894 18.1297 7.65C18.1297 8.392 18.2557 9.078 18.5077 9.708C18.7737 10.338 19.1377 10.891 19.5997 11.367C20.0617 11.829 20.6077 12.186 21.2377 12.438C21.8677 12.69 22.5537 12.816 23.2957 12.816ZM44.0604 15.21C42.9404 15.21 41.8974 15.028 40.9314 14.664C39.9794 14.286 39.1464 13.761 38.4324 13.089C37.7324 12.403 37.1864 11.598 36.7944 10.674C36.4024 9.75 36.2064 8.742 36.2064 7.65C36.2064 6.558 36.4024 5.55 36.7944 4.626C37.1864 3.702 37.7394 2.904 38.4534 2.232C39.1674 1.546 40.0004 1.021 40.9524 0.656999C41.9044 0.278999 42.9474 0.0899992 44.0814 0.0899992C45.2854 0.0899992 46.3844 0.299999 47.3784 0.72C48.3724 1.126 49.2124 1.735 49.8984 2.547L48.1344 4.206C47.6024 3.632 47.0074 3.205 46.3494 2.925C45.6914 2.631 44.9774 2.484 44.2074 2.484C43.4374 2.484 42.7304 2.61 42.0864 2.862C41.4564 3.114 40.9034 3.471 40.4274 3.933C39.9654 4.395 39.6014 4.941 39.3354 5.571C39.0834 6.201 38.9574 6.894 38.9574 7.65C38.9574 8.406 39.0834 9.099 39.3354 9.729C39.6014 10.359 39.9654 10.905 40.4274 11.367C40.9034 11.829 41.4564 12.186 42.0864 12.438C42.7304 12.69 43.4374 12.816 44.2074 12.816C44.9774 12.816 45.6914 12.676 46.3494 12.396C47.0074 12.102 47.6024 11.661 48.1344 11.073L49.8984 12.753C49.2124 13.551 48.3724 14.16 47.3784 14.58C46.3844 15 45.2784 15.21 44.0604 15.21ZM53.2776 15L59.8926 0.299999H62.5806L69.2166 15H66.3606L60.6696 1.749H61.7616L56.0916 15H53.2776ZM56.3226 11.598L57.0576 9.456H64.9956L65.7306 11.598H56.3226ZM74.2361 15V0.299999H76.9661V12.69H84.6521V15H74.2361ZM98.9111 15V0.299999H104.959C106.261 0.299999 107.374 0.509999 108.298 0.93C109.236 1.35 109.957 1.952 110.461 2.736C110.965 3.52 111.217 4.451 111.217 5.529C111.217 6.607 110.965 7.538 110.461 8.322C109.957 9.106 109.236 9.708 108.298 10.128C107.374 10.548 106.261 10.758 104.959 10.758H100.423L101.641 9.477V15H98.9111ZM101.641 9.771L100.423 8.448H104.833C106.037 8.448 106.94 8.196 107.542 7.692C108.158 7.174 108.466 6.453 108.466 5.529C108.466 4.591 108.158 3.87 107.542 3.366C106.94 2.862 106.037 2.61 104.833 2.61H100.423L101.641 1.266V9.771ZM124.186 15.21C123.038 15.21 121.981 15.021 121.015 14.643C120.049 14.265 119.209 13.74 118.495 13.068C117.781 12.382 117.228 11.584 116.836 10.674C116.444 9.75 116.248 8.742 116.248 7.65C116.248 6.558 116.444 5.557 116.836 4.647C117.228 3.723 117.781 2.925 118.495 2.253C119.209 1.567 120.049 1.035 121.015 0.656999C121.981 0.278999 123.031 0.0899992 124.165 0.0899992C125.313 0.0899992 126.363 0.278999 127.315 0.656999C128.281 1.035 129.121 1.567 129.835 2.253C130.549 2.925 131.102 3.723 131.494 4.647C131.886 5.557 132.082 6.558 132.082 7.65C132.082 8.742 131.886 9.75 131.494 10.674C131.102 11.598 130.549 12.396 129.835 13.068C129.121 13.74 128.281 14.265 127.315 14.643C126.363 15.021 125.32 15.21 124.186 15.21ZM124.165 12.816C124.907 12.816 125.593 12.69 126.223 12.438C126.853 12.186 127.399 11.829 127.861 11.367C128.323 10.891 128.68 10.345 128.932 9.729C129.198 9.099 129.331 8.406 129.331 7.65C129.331 6.894 129.198 6.208 128.932 5.592C128.68 4.962 128.323 4.416 127.861 3.954C127.399 3.478 126.853 3.114 126.223 2.862C125.593 2.61 124.907 2.484 124.165 2.484C123.423 2.484 122.737 2.61 122.107 2.862C121.491 3.114 120.945 3.478 120.469 3.954C120.007 4.416 119.643 4.962 119.377 5.592C119.125 6.208 118.999 6.894 118.999 7.65C118.999 8.392 119.125 9.078 119.377 9.708C119.643 10.338 120.007 10.891 120.469 11.367C120.931 11.829 121.477 12.186 122.107 12.438C122.737 12.69 123.423 12.816 124.165 12.816ZM138.126 15V0.299999H144.174C145.476 0.299999 146.589 0.509999 147.513 0.93C148.451 1.35 149.172 1.952 149.676 2.736C150.18 3.52 150.432 4.451 150.432 5.529C150.432 6.607 150.18 7.538 149.676 8.322C149.172 9.092 148.451 9.687 147.513 10.107C146.589 10.513 145.476 10.716 144.174 10.716H139.638L140.856 9.477V15H138.126ZM147.744 15L144.027 9.666H146.946L150.684 15H147.744ZM140.856 9.771L139.638 8.469H144.048C145.252 8.469 146.155 8.21 146.757 7.692C147.373 7.174 147.681 6.453 147.681 5.529C147.681 4.591 147.373 3.87 146.757 3.366C146.155 2.862 145.252 2.61 144.048 2.61H139.638L140.856 1.266V9.771ZM159.413 15V2.61H154.541V0.299999H167.015V2.61H162.143V15H159.413Z" fill="#CFCFCF"/>
</svg>
