<svg width="383" height="57" viewBox="0 0 383 57" fill="none" xmlns="http://www.w3.org/2000/svg">
<path d="M25.038 37.86H7.722V48H2.535V20.544H25.038C31.278 20.544 33.657 23.235 33.657 27.174V31.23C33.657 35.169 31.278 37.86 25.038 37.86ZM28.47 31.269V27.135C28.47 25.497 27.378 24.6 25.038 24.6H7.722V33.804H25.038C27.378 33.804 28.47 32.907 28.47 31.269ZM42.6514 48H37.4644V20.544H42.6514V48ZM83.7744 48H77.0664L64.8204 37.041L52.6524 48H45.8664L61.5444 34.272L45.8664 20.544H52.6134L64.8204 31.542L77.0274 20.544H83.6964L68.1354 34.077L83.7744 48ZM115.017 48H86.7811V20.544H115.017V24.6H91.9681V31.464H113.847V35.52H91.9681V43.944H115.017V48ZM146.916 48H119.421V20.544H124.647V43.944H146.916V48ZM192.54 37.86H175.224V48H170.037V20.544H192.54C198.78 20.544 201.159 23.235 201.159 27.174V31.23C201.159 35.169 198.78 37.86 192.54 37.86ZM195.972 31.269V27.135C195.972 25.497 194.88 24.6 192.54 24.6H175.224V33.804H192.54C194.88 33.804 195.972 32.907 195.972 31.269ZM232.266 48H204.771V20.544H209.997V43.944H232.266V48ZM273.523 48H267.673L253.516 25.887L239.125 48H233.353L251.605 20.544H255.388L273.523 48ZM312.416 48H309.881L280.592 26.628V48H276.068V20.544H280.553L307.892 40.941V20.544H312.416V48ZM345.704 48H317.468V20.544H345.704V24.6H322.655V31.464H344.534V35.52H322.655V43.944H345.704V48ZM368.047 48H362.86V24.6H348.469V20.544H382.048V24.6H368.047V48Z" fill="white"/>
<path d="M46.2901 7.09718C41.693 7.98788 41.0692 8.71021 40.3506 13.9793C39.5093 8.71023 38.8674 7.98725 34.2497 7.09478C38.8468 6.20408 39.4706 5.48174 40.1892 0.212653C41.0305 5.48172 41.6724 6.20471 46.2901 7.09718Z" fill="white"/>
</svg>
