<svg width="142" height="54" viewBox="0 0 142 54" fill="none" xmlns="http://www.w3.org/2000/svg">
<path d="M62.5222 21.5558C62.4447 21.2985 62.3889 21.2458 62.1874 21.1838L61.8154 21.0753V20.5328C61.9859 20.5235 62.3114 20.5173 62.6679 20.5173C62.922 20.5173 63.1948 20.5266 63.4583 20.5266L64.7199 24.7113L65.7335 21.4659C65.7397 21.4287 65.749 21.3884 65.749 21.3574C65.749 21.2799 65.7025 21.2334 65.5847 21.2024L65.1601 21.0846V20.5359C65.346 20.5266 65.687 20.5204 66.0745 20.5204C66.3473 20.5204 66.6479 20.5297 66.9269 20.5297V20.9699L65.0609 25.7652H63.914L62.5222 21.5558Z" fill="#CFCFCF"/>
<path d="M67.2959 23.2978C67.2959 21.5248 68.325 20.4305 69.9927 20.4305C71.4093 20.4305 72.2462 21.3512 72.2462 22.9475C72.2462 24.7144 71.2171 25.7993 69.5587 25.7993C68.1328 25.8024 67.2959 24.888 67.2959 23.2978ZM70.6281 24.8415C70.9133 24.4385 71.0931 23.7814 71.0838 23.1211C71.0683 21.9742 70.5506 21.1993 69.7974 21.1993C69.4502 21.1993 69.1712 21.2613 68.9233 21.376C68.6226 21.8657 68.4583 22.4826 68.4676 23.118C68.4831 24.2649 68.9946 25.0306 69.754 25.0306C70.1725 25.0337 70.4483 24.9717 70.6281 24.8415Z" fill="#CFCFCF"/>
<path d="M73.4177 22.2997L73.4239 21.5558C73.4239 21.3171 73.3929 21.2768 73.1697 21.1993L72.7915 21.0753V20.5328C72.9682 20.5235 73.2937 20.5173 73.6749 20.5173C73.9291 20.5173 74.2174 20.5266 74.4809 20.5266V25.6939H73.3433L73.4177 22.2997Z" fill="#CFCFCF"/>
<path d="M75.4575 23.3536C75.4575 21.565 76.4959 20.4398 78.1543 20.4398C78.7061 20.4398 79.2702 20.6103 79.5709 20.8738L79.1617 21.7634C78.6348 21.4906 77.9373 21.2985 77.5189 21.2985C77.3639 21.2985 77.2244 21.3449 77.0849 21.4379C76.7811 21.7789 76.5889 22.4361 76.5889 23.1273C76.5889 24.2432 77.1841 25.0027 78.0675 25.0027H79.3136V25.5544C78.8486 25.7404 78.3155 25.8179 77.5096 25.8179C76.2077 25.8179 75.4575 24.919 75.4575 23.3536Z" fill="#CFCFCF"/>
<path d="M83.9257 24.7391V25.6907H80.547L80.6245 22.2965L80.6307 21.5526C80.6307 21.3139 80.609 21.2674 80.3765 21.1961L79.958 21.0721V20.5297H83.9009V21.4813L81.6939 21.1868V22.7429L83.3367 22.6654V23.4775L81.6939 23.3752V25.0336L83.9257 24.7391Z" fill="#CFCFCF"/>
<path d="M86.3838 23.2978C86.3838 21.5248 87.4129 20.4305 89.0806 20.4305C90.4972 20.4305 91.3341 21.3512 91.3341 22.9475C91.3341 24.7144 90.305 25.7993 88.6466 25.7993C87.2207 25.8024 86.3838 24.888 86.3838 23.2978ZM89.7129 24.8415C90.0012 24.4385 90.1779 23.7814 90.1686 23.1211C90.1531 21.9742 89.6354 21.1993 88.8822 21.1993C88.5319 21.1993 88.256 21.2613 88.0081 21.376C87.7074 21.8657 87.5431 22.4826 87.5524 23.118C87.5679 24.2649 88.0794 25.0306 88.8388 25.0306C89.2573 25.0337 89.5362 24.9717 89.7129 24.8415Z" fill="#CFCFCF"/>
<path d="M93.5288 21.1899V22.8483L95.1717 22.8111V23.6232L93.5288 23.4992V25.6907H92.3912L92.4625 22.2965L92.4687 21.5526C92.4687 21.3139 92.4377 21.2674 92.2114 21.1961L91.793 21.0721V20.5297H95.6367V21.4813L93.5288 21.1899Z" fill="#CFCFCF"/>
<path d="M98.966 21.1993L97.3231 21.4535L97.2983 20.5173H101.638L101.613 21.4535L99.9703 21.1993L100.057 25.6939H98.8792L98.966 21.1993Z" fill="#CFCFCF"/>
<path d="M107.112 20.5235V25.6907H105.975L106.03 23.4434H103.87V25.6907H102.732L102.81 22.2965L102.819 21.5526C102.819 21.3139 102.788 21.2674 102.565 21.1961L102.146 21.0721V20.5297C102.326 20.5204 102.664 20.5142 103.036 20.5142C103.3 20.5142 103.603 20.5235 103.873 20.5235V22.684H106.049L106.058 22.2965L106.068 21.5526C106.068 21.3139 106.037 21.2674 105.81 21.1961L105.392 21.0721V20.5297C105.572 20.5204 105.903 20.5142 106.275 20.5142C106.539 20.5173 106.84 20.5235 107.112 20.5235Z" fill="#CFCFCF"/>
<path d="M111.839 24.7391V25.6907H108.461L108.538 22.2965L108.547 21.5526C108.547 21.3139 108.523 21.2674 108.29 21.1961L107.872 21.0721V20.5297H111.814V21.4813L109.607 21.1868V22.7429L111.25 22.6654V23.4775L109.607 23.3752V25.0336L111.839 24.7391Z" fill="#CFCFCF"/>
<path d="M114.806 22.2997L114.815 21.5558C114.815 21.3171 114.778 21.2706 114.558 21.1993L114.139 21.0753V20.5329C114.728 20.5174 115.767 20.5081 116.898 20.5081C117.865 20.5143 118.439 21.035 118.439 21.9029C118.439 23.1738 117.611 23.8868 116.138 23.8868H115.866V25.6908H114.728L114.806 22.2997ZM116.991 23.0964C117.192 22.8794 117.326 22.4919 117.326 22.1199C117.326 21.5403 117.031 21.19 116.514 21.1838L115.872 21.1776V23.1149C116.018 23.1676 116.228 23.2017 116.436 23.2017C116.675 23.1986 116.892 23.1583 116.991 23.0964Z" fill="#CFCFCF"/>
<path d="M122.89 24.7391V25.6907H119.511L119.589 22.2965L119.595 21.5526C119.595 21.3139 119.573 21.2674 119.341 21.1961L118.922 21.0721V20.5297H122.865V21.4813L120.658 21.1868V22.7429L122.301 22.6654V23.4775L120.658 23.3752V25.0336L122.89 24.7391Z" fill="#CFCFCF"/>
<path d="M123.463 23.2978C123.463 21.5248 124.492 20.4305 126.16 20.4305C127.577 20.4305 128.414 21.3512 128.414 22.9475C128.414 24.7144 127.385 25.7993 125.726 25.7993C124.3 25.8024 123.463 24.888 123.463 23.2978ZM126.796 24.8415C127.081 24.4385 127.261 23.7814 127.251 23.1211C127.236 21.9742 126.718 21.1993 125.965 21.1993C125.618 21.1993 125.336 21.2613 125.091 21.376C124.787 21.8657 124.626 22.4826 124.632 23.118C124.647 24.2649 125.159 25.0306 125.918 25.0306C126.337 25.0337 126.616 24.9717 126.796 24.8415Z" fill="#CFCFCF"/>
<path d="M129.539 22.2997L129.545 21.5558C129.545 21.3171 129.508 21.2706 129.291 21.1993L128.872 21.0753V20.5329C129.461 20.5174 130.499 20.5081 131.631 20.5081C132.598 20.5143 133.171 21.035 133.171 21.9029C133.171 23.1738 132.344 23.8868 130.871 23.8868H130.599V25.6908H129.461L129.539 22.2997ZM131.724 23.0964C131.925 22.8794 132.059 22.4919 132.059 22.1199C132.059 21.5403 131.764 21.19 131.246 21.1838L130.602 21.1776V23.1149C130.751 23.1676 130.958 23.2017 131.169 23.2017C131.405 23.1986 131.622 23.1583 131.724 23.0964Z" fill="#CFCFCF"/>
<path d="M137.248 24.7856V25.6907H134.241L134.318 22.2965L134.328 21.5526C134.328 21.3139 134.303 21.2674 134.07 21.1961L133.652 21.0721V20.5297C133.832 20.5204 134.163 20.5142 134.557 20.5142C134.82 20.5142 135.115 20.5235 135.378 20.5235V25.0801L137.248 24.7856Z" fill="#CFCFCF"/>
<path d="M141.426 24.7391V25.6907H138.048L138.125 22.2965L138.131 21.5526C138.131 21.3139 138.107 21.2674 137.874 21.1961L137.456 21.0721V20.5297H141.398V21.4813L139.191 21.1868V22.7429L140.834 22.6654V23.4775L139.191 23.3752V25.0336L141.426 24.7391Z" fill="#CFCFCF"/>
<path d="M63.0552 40.3434H64.8871V40.7619H63.5046V41.915H64.7352V42.3334H63.5046V43.9329H63.0552V40.3434Z" fill="#CFCFCF"/>
<path d="M65.6372 42.1846C65.6372 41.0408 66.3873 40.2689 67.494 40.2689C68.5541 40.2689 69.267 40.9633 69.267 42.0854C69.267 43.2292 68.5169 44.001 67.4103 44.001C66.3501 44.001 65.6372 43.3067 65.6372 42.1846ZM68.8207 42.1164C68.8207 41.236 68.2937 40.6843 67.4599 40.6843C66.6167 40.6843 66.0898 41.2639 66.0898 42.1536C66.0898 43.0339 66.6136 43.5856 67.4506 43.5856C68.2906 43.5856 68.8207 43.006 68.8207 42.1164Z" fill="#CFCFCF"/>
<path d="M70.2065 40.3433H71.3194C71.9517 40.3433 72.3764 40.7121 72.3764 41.3042C72.3764 41.8745 71.9765 42.2775 71.3782 42.3488L72.5314 43.9328H71.9734L70.8513 42.3581H70.6591V43.9328H70.2096V40.3433H70.2065ZM71.1675 41.9613C71.6293 41.9613 71.9176 41.7072 71.9176 41.3352C71.9176 40.9787 71.6541 40.7493 71.245 40.7493H70.656V41.9613H71.1675Z" fill="#CFCFCF"/>
<path d="M75.6836 40.3433H76.319L77.6581 43.9328H77.1777L76.7995 42.9192H75.1597L74.7816 43.9328H74.3042L75.6836 40.3433ZM76.6507 42.5162L75.9843 40.7152L75.3116 42.5162H76.6507Z" fill="#CFCFCF"/>
<path d="M79.7225 43.7375V43.2478C80.0108 43.4709 80.3735 43.6104 80.7485 43.6104C81.2507 43.6104 81.5607 43.3624 81.5607 42.9781C81.5607 42.4976 81.0647 42.4077 80.6803 42.3209C80.2247 42.2124 79.645 42.0358 79.645 41.3228C79.645 40.6812 80.11 40.2782 80.826 40.2782C81.1515 40.2782 81.5142 40.3619 81.7993 40.5262V41.019C81.5204 40.8083 81.1825 40.6719 80.826 40.6719C80.3704 40.6719 80.0852 40.8888 80.0852 41.267C80.0852 41.7692 80.5811 41.8529 81.012 41.9552C81.4739 42.0699 82.0008 42.2434 82.0008 42.9285C82.0008 43.5918 81.4987 44.0041 80.7392 44.0041C80.389 44.001 80.0139 43.9142 79.7225 43.7375Z" fill="#CFCFCF"/>
<path d="M82.8779 40.3433H83.3274V41.8373H85.367V40.3433H85.8165V43.9328H85.367V42.2558H83.3274V43.9328H82.8779V40.3433Z" fill="#CFCFCF"/>
<path d="M87.8813 40.3433H88.5168L89.8559 43.9328H89.3754L88.9973 42.9192H87.3575L86.9793 43.9328H86.502L87.8813 40.3433ZM88.8485 42.5162L88.182 40.7152L87.5094 42.5162H88.8485Z" fill="#CFCFCF"/>
<path d="M90.5811 40.3433H91.6939C92.3262 40.3433 92.7478 40.7121 92.7478 41.3042C92.7478 41.8745 92.3479 42.2775 91.7497 42.3488L92.9028 43.9328H92.3448L91.2227 42.3581H91.0305V43.9328H90.5811V40.3433ZM91.542 41.9613C92.0038 41.9613 92.2921 41.7072 92.2921 41.3352C92.2921 40.9787 92.0286 40.7493 91.6195 40.7493H91.0305V41.9613H91.542Z" fill="#CFCFCF"/>
<path d="M93.6528 40.3433H95.5375V40.7617H94.1054V41.8373H95.3887V42.2558H94.1054V43.5143H95.5375V43.9328H93.6528V40.3433Z" fill="#CFCFCF"/>
<path d="M96.4675 40.3433H97.791C98.8729 40.3433 99.6013 40.9942 99.6013 42.0574C99.6013 43.1795 98.7985 43.9359 97.6144 43.9359H96.4644V40.3433H96.4675ZM97.6764 43.5143C98.5753 43.5143 99.1394 42.9502 99.1394 42.107C99.1394 41.2794 98.5908 40.7617 97.7322 40.7617H96.9138V43.5143H97.6764Z" fill="#CFCFCF"/>
<path d="M101.561 43.9235V43.4833C101.654 43.5546 101.778 43.5825 101.877 43.5825C102.091 43.5825 102.184 43.4492 102.184 43.2105V40.3433H102.639V43.2415C102.639 43.691 102.36 44.001 101.926 44.001C101.799 44.001 101.675 43.9762 101.561 43.9235Z" fill="#CFCFCF"/>
<path d="M103.823 40.3433H105.708V40.7617H104.276V41.8373H105.559V42.2558H104.276V43.5143H105.708V43.9328H103.823V40.3433Z" fill="#CFCFCF"/>
<path d="M111.541 40.3433L110.481 43.9328H109.855L108.959 40.7493L108.107 43.9328H107.481L106.374 40.3433H106.845L107.812 43.4833L108.665 40.3433H109.291L110.19 43.4833L111.11 40.3433H111.541Z" fill="#CFCFCF"/>
<path d="M112.264 40.3433H112.719V43.9328H112.264V40.3433Z" fill="#CFCFCF"/>
<path d="M113.779 43.7375V43.2478C114.068 43.4709 114.43 43.6104 114.802 43.6104C115.304 43.6104 115.614 43.3624 115.614 42.9781C115.614 42.4976 115.118 42.4077 114.734 42.3209C114.278 42.2124 113.699 42.0358 113.699 41.3228C113.699 40.6812 114.164 40.2782 114.88 40.2782C115.205 40.2782 115.568 40.3619 115.853 40.5262V41.019C115.574 40.8083 115.236 40.6719 114.88 40.6719C114.424 40.6719 114.139 40.8888 114.139 41.267C114.139 41.7692 114.635 41.8529 115.066 41.9552C115.528 42.0699 116.055 42.2434 116.055 42.9285C116.055 43.5918 115.552 44.0041 114.793 44.0041C114.446 44.001 114.071 43.9142 113.779 43.7375Z" fill="#CFCFCF"/>
<path d="M116.929 40.3433H117.378V41.8373H119.418V40.3433H119.867V43.9328H119.418V42.2558H117.378V43.9328H116.929V40.3433Z" fill="#CFCFCF"/>
<path d="M122.45 40.3433H124.282V40.7617H122.899V41.9148H124.13V42.3333H122.899V43.9328H122.45V40.3433Z" fill="#CFCFCF"/>
<path d="M125.211 42.603V40.3433H125.661L125.667 42.5844C125.667 43.1578 125.999 43.5825 126.603 43.5825C127.192 43.5825 127.552 43.1733 127.552 42.5627L127.558 40.3433H128.007V42.5224C128.007 43.4058 127.428 44.001 126.578 44.001C125.766 44.001 125.211 43.4616 125.211 42.603Z" fill="#CFCFCF"/>
<path d="M129.83 40.7617H128.832V40.3433H131.284V40.7617H130.286V43.9328H129.83V40.7617Z" fill="#CFCFCF"/>
<path d="M132.105 42.603V40.3433H132.555L132.561 42.5844C132.561 43.1578 132.893 43.5825 133.497 43.5825C134.086 43.5825 134.443 43.1733 134.443 42.5627L134.449 40.3433H134.898V42.5224C134.898 43.4058 134.319 44.001 133.469 44.001C132.66 44.001 132.105 43.4616 132.105 42.603Z" fill="#CFCFCF"/>
<path d="M135.934 40.3433H137.046C137.679 40.3433 138.103 40.7121 138.103 41.3042C138.103 41.8745 137.704 42.2775 137.105 42.3488L138.258 43.9328H137.7L136.578 42.3581H136.386V43.9328H135.937V40.3433H135.934ZM136.898 41.9613C137.359 41.9613 137.648 41.7072 137.648 41.3352C137.648 40.9787 137.384 40.7493 136.975 40.7493H136.386V41.9613H136.898Z" fill="#CFCFCF"/>
<path d="M139.008 40.3433H140.893V40.7617H139.461V41.8373H140.744V42.2558H139.461V43.5143H140.893V43.9328H139.008V40.3433Z" fill="#CFCFCF"/>
<path d="M63.7432 33.0031H62.7451V32.5846H65.197V33.0031H64.1989V36.1741H63.7432V33.0031Z" fill="#CFCFCF"/>
<path d="M66.2568 32.5844H66.7063V34.0784H68.7459V32.5844H69.1954V36.1739H68.7459V34.4969H66.7063V36.1739H66.2568V32.5844Z" fill="#CFCFCF"/>
<path d="M70.5625 32.5844H72.4471V33.0028H71.0151V34.0784H72.2984V34.4969H71.0151V35.7554H72.4471V36.1739H70.5625V32.5844Z" fill="#CFCFCF"/>
<path d="M75.4634 32.5844H76.4677C77.1155 32.5844 77.5557 32.978 77.5557 33.6135C77.5557 34.2861 77.0629 34.7418 76.3406 34.7418H75.9159V36.1739H75.4665V32.5844H75.4634ZM76.322 34.3326C76.7932 34.3326 77.0969 34.0474 77.0969 33.6352C77.0969 33.2477 76.818 32.9935 76.3933 32.9935H75.9128V34.3326H76.322Z" fill="#CFCFCF"/>
<path d="M78.7583 32.5844H79.8711C80.5035 32.5844 80.9281 32.9532 80.9281 33.5453C80.9281 34.1156 80.5283 34.5186 79.93 34.5899L81.0831 36.1739H80.5252L79.403 34.6023H79.2109V36.1739H78.7614V32.5844H78.7583ZM79.7223 34.2024C80.1811 34.2024 80.4725 33.9482 80.4725 33.5763C80.4725 33.2198 80.209 32.9904 79.7998 32.9904H79.2109V34.2024H79.7223Z" fill="#CFCFCF"/>
<path d="M82.1436 32.5844H84.0282V33.0028H82.5961V34.0784H83.8794V34.4969H82.5961V35.7554H84.0282V36.1739H82.1436V32.5844Z" fill="#CFCFCF"/>
<path d="M85.1625 35.9786V35.4888C85.4538 35.712 85.8134 35.8515 86.1885 35.8515C86.6906 35.8515 87.0006 35.6035 87.0006 35.2192C87.0006 34.7387 86.5046 34.6488 86.1203 34.562C85.6646 34.4535 85.085 34.2768 85.085 33.5639C85.085 32.9223 85.5499 32.5193 86.266 32.5193C86.5914 32.5193 86.9541 32.603 87.2393 32.7673V33.2601C86.9603 33.0493 86.6224 32.913 86.266 32.913C85.8103 32.913 85.5251 33.1299 85.5251 33.5081C85.5251 34.0103 86.0211 34.094 86.452 34.1963C86.9138 34.3109 87.4408 34.4845 87.4408 35.1696C87.4408 35.8329 86.9386 36.2452 86.1792 36.2452C85.832 36.2421 85.4538 36.1553 85.1625 35.9786Z" fill="#CFCFCF"/>
<path d="M88.625 32.5844H89.0807V36.1739H88.625V32.5844Z" fill="#CFCFCF"/>
<path d="M90.4445 32.5844H91.7681C92.8499 32.5844 93.5784 33.2353 93.5784 34.2985C93.5784 35.4206 92.7755 36.177 91.5914 36.177H90.4414V32.5844H90.4445ZM91.6565 35.7554C92.5554 35.7554 93.1196 35.1912 93.1196 34.3481C93.1196 33.5205 92.5709 33.0028 91.7123 33.0028H90.894V35.7554H91.6565Z" fill="#CFCFCF"/>
<path d="M94.8276 32.5844H96.7123V33.0028H95.2802V34.0784H96.5635V34.4969H95.2802V35.7554H96.7123V36.1739H94.8276V32.5844Z" fill="#CFCFCF"/>
<path d="M101.002 32.5844V36.1739H100.447L98.3675 33.1764V36.1739H97.9429V32.5844H98.4915L100.578 35.5818V32.5844H101.002Z" fill="#CFCFCF"/>
<path d="M103.061 33.0028H102.062V32.5844H104.514V33.0028H103.516V36.1739H103.061V33.0028Z" fill="#CFCFCF"/>
<path d="M105.912 32.5844H106.517L105.695 33.691H105.447L105.912 32.5844Z" fill="#CFCFCF"/>
<path d="M107.679 35.9786V35.4888C107.971 35.712 108.33 35.8515 108.702 35.8515C109.204 35.8515 109.514 35.6035 109.514 35.2192C109.514 34.7387 109.018 34.6488 108.634 34.562C108.178 34.4535 107.599 34.2768 107.599 33.5639C107.599 32.9223 108.064 32.5193 108.78 32.5193C109.105 32.5193 109.468 32.603 109.753 32.7673V33.2601C109.474 33.0493 109.136 32.913 108.78 32.913C108.324 32.913 108.039 33.1299 108.039 33.5081C108.039 34.0103 108.535 34.094 108.966 34.1963C109.427 34.3109 109.954 34.4845 109.954 35.1696C109.954 35.8329 109.452 36.2452 108.693 36.2452C108.349 36.2421 107.971 36.1553 107.679 35.9786Z" fill="#CFCFCF"/>
<path d="M112.927 32.5844H113.382V36.1739H112.927V32.5844Z" fill="#CFCFCF"/>
<path d="M117.809 32.5844V36.1739H117.254L115.174 33.1764V36.1739H114.75V32.5844H115.298L117.384 35.5818V32.5844H117.809Z" fill="#CFCFCF"/>
<path d="M119.179 32.5844H119.635V36.1739H119.179V32.5844Z" fill="#CFCFCF"/>
<path d="M121.693 33.0028H120.695V32.5844H123.147V33.0028H122.149V36.1739H121.693V33.0028Z" fill="#CFCFCF"/>
<path d="M124.207 32.5844H124.663V36.1739H124.207V32.5844Z" fill="#CFCFCF"/>
<path d="M127.031 32.5844H127.666L129.005 36.1739H128.525L128.147 35.1602H126.507L126.129 36.1739H125.651L127.031 32.5844ZM127.998 34.7573L127.331 32.9563L126.659 34.7573H127.998Z" fill="#CFCFCF"/>
<path d="M130.447 33.0028H129.449V32.5844H131.901V33.0028H130.903V36.1739H130.447V33.0028Z" fill="#CFCFCF"/>
<path d="M132.958 32.5844H133.413V36.1739H132.958V32.5844Z" fill="#CFCFCF"/>
<path d="M137.57 32.5844L136.355 36.1739H135.744L134.523 32.5844H135L136.073 35.7771L137.114 32.5844H137.57Z" fill="#CFCFCF"/>
<path d="M138.602 32.5844H140.487V33.0028H139.055V34.0784H140.338V34.4969H139.055V35.7554H140.487V36.1739H138.602V32.5844Z" fill="#CFCFCF"/>
<path fill-rule="evenodd" clip-rule="evenodd" d="M36.5199 13.2539H16.9131C17.702 8.55255 21.7909 4.97021 26.7165 4.97021C31.6421 4.97021 35.731 8.55255 36.5199 13.2539Z" fill="#CFCFCF"/>
<path fill-rule="evenodd" clip-rule="evenodd" d="M40.1784 36.5191L40.1784 16.9124C44.8797 17.7014 48.4619 21.7902 48.4619 26.7157C48.4619 31.6413 44.8797 35.7301 40.1784 36.5191Z" fill="#CFCFCF"/>
<path fill-rule="evenodd" clip-rule="evenodd" d="M36.5199 40.1783H16.9131C17.7021 44.8796 21.7909 48.4619 26.7165 48.4619C31.642 48.4619 35.7309 44.8796 36.5199 40.1783Z" fill="#CFCFCF" fill-opacity="0.4"/>
<path fill-rule="evenodd" clip-rule="evenodd" d="M13.2551 36.52L13.2551 16.913C8.55336 17.7016 4.9707 21.7907 4.9707 26.7165C4.9707 31.6423 8.55336 35.7313 13.2551 36.52Z" fill="#CFCFCF" fill-opacity="0.4"/>
<path fill-rule="evenodd" clip-rule="evenodd" d="M43.1675 24.1289L29.3033 10.2646C33.1855 7.49772 38.6102 7.85581 42.0933 11.3389C45.5763 14.8219 45.9344 20.2466 43.1675 24.1289Z" fill="#CFCFCF"/>
<path fill-rule="evenodd" clip-rule="evenodd" d="M29.3029 43.1671L43.1673 29.3028C45.9344 33.1851 45.5764 38.6099 42.0932 42.0931C38.6101 45.5762 33.1852 45.9342 29.3029 43.1671Z" fill="#CFCFCF" fill-opacity="0.4"/>
<path fill-rule="evenodd" clip-rule="evenodd" d="M24.1297 43.1671L10.2654 29.3027C7.49824 33.185 7.85624 38.6099 11.3394 42.0931C14.8226 45.5762 20.2474 45.9342 24.1297 43.1671Z" fill="#CFCFCF" fill-opacity="0.4"/>
<path fill-rule="evenodd" clip-rule="evenodd" d="M10.2657 24.129L24.1299 10.2647C20.2476 7.49773 14.8229 7.85579 11.3398 11.3389C7.85675 14.822 7.49869 20.2467 10.2657 24.129Z" fill="#CFCFCF"/>
<path fill-rule="evenodd" clip-rule="evenodd" d="M18.3587 4.55639L35.0742 4.55639C33.3043 1.81488 30.2223 -1.21594e-06 26.7164 -2.09456e-06C23.2105 -2.97318e-06 20.1285 1.81488 18.3587 4.55639Z" fill="#CFCFCF"/>
<path fill-rule="evenodd" clip-rule="evenodd" d="M48.8779 18.359L48.8779 35.0736C51.619 33.3037 53.4336 30.2219 53.4336 26.7163C53.4336 23.2107 51.619 20.1289 48.8779 18.359Z" fill="#CFCFCF"/>
<path fill-rule="evenodd" clip-rule="evenodd" d="M18.3583 48.8759L35.0742 48.8759C33.3044 51.6175 30.2223 53.4325 26.7163 53.4325C23.2103 53.4325 20.1282 51.6175 18.3583 48.8759Z" fill="#CFCFCF" fill-opacity="0.4"/>
<path fill-rule="evenodd" clip-rule="evenodd" d="M4.55615 18.3587L4.55615 35.074C1.81477 33.3041 -6.07964e-07 30.2221 -1.04726e-06 26.7163C-1.48656e-06 23.2105 1.81477 20.1286 4.55615 18.3587Z" fill="#CFCFCF" fill-opacity="0.4"/>
<path fill-rule="evenodd" clip-rule="evenodd" d="M36.476 5.13702L48.2957 16.9567C48.9828 13.7667 48.0868 10.3041 45.6077 7.825C43.1287 5.34594 39.666 4.44995 36.476 5.13702Z" fill="#CFCFCF"/>
<path fill-rule="evenodd" clip-rule="evenodd" d="M48.2965 36.4754L36.4771 48.2948C39.667 48.9817 43.1295 48.0857 45.6084 45.6068C48.0874 43.1278 48.9834 39.6654 48.2965 36.4754Z" fill="#CFCFCF" fill-opacity="0.4"/>
<path fill-rule="evenodd" clip-rule="evenodd" d="M5.13659 36.4761L16.956 48.2955C13.7661 48.9825 10.3036 48.0865 7.82465 45.6075C5.34568 43.1285 4.44966 39.666 5.13659 36.4761Z" fill="#CFCFCF" fill-opacity="0.4"/>
<path fill-rule="evenodd" clip-rule="evenodd" d="M16.9567 5.13701L5.13695 16.9568C4.44986 13.7667 5.34585 10.304 7.82492 7.82498C10.304 5.34591 13.7667 4.44992 16.9567 5.13701Z" fill="#CFCFCF"/>
</svg>
