<svg width="90" height="90" viewBox="0 0 90 90" fill="none" xmlns="http://www.w3.org/2000/svg">
<path d="M71.4375 18.4127C67.9995 14.9399 63.9044 12.1865 59.3911 10.3129C54.8779 8.43935 50.0367 7.4832 45.15 7.50022C24.675 7.50022 7.9875 24.1877 7.9875 44.6627C7.9875 51.2252 9.7125 57.6002 12.9375 63.2252L7.6875 82.5002L27.375 77.3252C32.8125 80.2877 38.925 81.8627 45.15 81.8627C65.625 81.8627 82.3125 65.1752 82.3125 44.7002C82.3125 34.7627 78.45 25.4252 71.4375 18.4127ZM45.15 75.5627C39.6 75.5627 34.1625 74.0627 29.4 71.2502L28.275 70.5752L16.575 73.6502L19.6875 62.2502L18.9375 61.0877C15.854 56.1639 14.2168 50.4724 14.2125 44.6627C14.2125 27.6377 28.0875 13.7627 45.1125 13.7627C53.3625 13.7627 61.125 16.9877 66.9375 22.8377C69.8156 25.7026 72.0964 29.1102 73.6477 32.8631C75.1991 36.6159 75.9901 40.6394 75.975 44.7002C76.05 61.7252 62.175 75.5627 45.15 75.5627ZM62.1 52.4627C61.1625 52.0127 56.5875 49.7627 55.7625 49.4252C54.9 49.1252 54.3 48.9752 53.6625 49.8752C53.025 50.8127 51.2625 52.9127 50.7375 53.5127C50.2125 54.1502 49.65 54.2252 48.7125 53.7377C47.775 53.2877 44.775 52.2752 41.25 49.1252C38.475 46.6502 36.6375 43.6127 36.075 42.6752C35.55 41.7377 36 41.2502 36.4875 40.7627C36.9 40.3502 37.425 39.6752 37.875 39.1502C38.325 38.6252 38.5125 38.2127 38.8125 37.6127C39.1125 36.9752 38.9625 36.4502 38.7375 36.0002C38.5125 35.5502 36.6375 30.9752 35.8875 29.1002C35.1375 27.3002 34.35 27.5252 33.7875 27.4877H31.9875C31.35 27.4877 30.375 27.7127 29.5125 28.6502C28.6875 29.5877 26.2875 31.8377 26.2875 36.4127C26.2875 40.9877 29.625 45.4127 30.075 46.0127C30.525 46.6502 36.6375 56.0252 45.9375 60.0377C48.15 61.0127 49.875 61.5752 51.225 61.9877C53.4375 62.7002 55.4625 62.5877 57.075 62.3627C58.875 62.1002 62.5875 60.1127 63.3375 57.9377C64.125 55.7627 64.125 53.9252 63.8625 53.5127C63.6 53.1002 63.0375 52.9127 62.1 52.4627Z" fill="white"/>
</svg>
